<?xml version="1.0" encoding="utf-8"?>
<!-- Generator: Adobe Illustrator 16.0.1, SVG Export Plug-In . SVG Version: 6.00 Build 0)  -->
<!DOCTYPE svg PUBLIC "-//W3C//DTD SVG 1.1//EN" "http://www.w3.org/Graphics/SVG/1.1/DTD/svg11.dtd">
<svg version="1.1" id="Layer_1" xmlns="http://www.w3.org/2000/svg" xmlns:xlink="http://www.w3.org/1999/xlink" x="0px" y="0px"
	 width="573.755px" height="105.983px" viewBox="0 0 573.755 105.983" enable-background="new 0 0 573.755 105.983"
	 xml:space="preserve">
<g>
	<path fill="#005689" d="M440.458,0.493c-5.361,0-9.65,4.289-9.65,9.652c0,5.264,4.289,9.553,9.65,9.553
		c5.266,0,9.65-4.289,9.65-9.553C450.108,4.782,445.724,0.493,440.458,0.493"/>
	<path fill="#005689" d="M510.876,79.257h29.832v-4.971l-5.754-2.729V36.286c2.148-1.541,4.682-2.066,7.41-2.066
		c4.973,0,7.311,2.047,7.311,7.701v29.637l-5.75,2.729v4.971h29.83v-4.971l-5.945-2.729v-33.73c0-10.043-4.582-14.527-13.648-14.527
		c-7.408,0-14.625,2.633-19.5,7.117V23.3H533.2l-22.617,3.607v4.777l6.24,2.826v37.047l-5.947,2.729V79.257z"/>
	<polygon fill="#005689" points="426.542,26.714 426.542,31.685 432.683,34.511 432.683,71.458 426.833,74.188 426.833,79.257 
		456.667,79.257 456.667,74.188 450.815,71.458 450.815,23.104 449.354,23.104 	"/>
	<path fill="#005689" d="M401.173,68.989c-1.316,1.086-2.826,1.883-5.557,1.883c-7.215,0-10.627-5.848-10.627-19.301
		c0-15.404,4.291-20.568,10.041-20.568c3.221,0,4.826,1.004,6.143,2.451V68.989z M401.173,25.737
		c-2.242-1.561-5.75-2.445-8.775-2.445c-13.42,0-26.105,7.697-26.105,29.729c0,20.959,12.775,27.697,21.332,27.697
		c6.822,0,11.5-3.021,13.744-5.945h0.584v5.756h1.562l21.543-2.539v-3.973l-5.752-3.217V1.073h-1.463l-22.715,3.607v4.973
		l6.045,2.729V25.737z"/>
	<path fill="#005689" d="M325.866,26.714v4.971l6.043,2.826v36.947l-5.752,2.73v5.068h31.391v-5.068l-7.506-2.73V42.513
		c3.209-2.521,7.215-3.32,12.086-3.32c1.562,0,3.51,0.193,4.584,0.486V23.788c-0.586-0.195-1.754-0.293-2.729-0.293
		c-5.947,0-11.406,3.898-14.623,11.113V23.104H347.8L325.866,26.714z"/>
	<path fill="#005689" d="M286.915,31.019c1.289-0.576,3.941-0.602,4.818-0.602c7.02,0,9.066,3.508,9.066,10.432l-0.014,6.16
		l-10.395,1.953c-10.643,1.965-18.67,5.197-18.67,16.408c0,9.064,6.365,15.348,15.041,15.348c6.824,0,13.258-2.922,15.693-7.797
		h0.49c0.875,5.848,5.945,7.701,11.6,7.701c4.387,0,8.629-1.365,10.238-3.189v-3.148l-5.756-2.727V39.872
		c0-12.281-8.77-16.773-23.395-16.773c-9.555,0-15.797,2.383-20.861,4.797v13.828h8.482L286.915,31.019z M300.8,68.425
		c-1.043,1.539-3.021,2.352-4.971,2.352c-3.51,0-6.824-1.951-6.824-7.994c0-4.312,3.898-8.283,8.17-8.936l3.625-0.689V68.425z"/>
	<path fill="#005689" d="M471.31,31.019c1.289-0.576,3.941-0.602,4.818-0.602c7.018,0,9.066,3.508,9.066,10.432l-0.016,6.16
		l-10.395,1.953c-10.641,1.965-18.668,5.197-18.668,16.408c0,9.064,6.363,15.348,15.039,15.348c6.824,0,13.258-2.922,15.695-7.797
		h0.488c0.877,5.848,5.947,7.701,11.6,7.701c4.389,0,8.631-1.365,10.238-3.189v-3.148l-5.754-2.727V39.872
		c0-12.281-8.771-16.773-23.395-16.773c-9.555,0-15.799,2.383-20.861,4.797v13.828h8.479L471.31,31.019z M485.194,68.425
		c-1.043,1.539-3.023,2.352-4.973,2.352c-3.51,0-6.824-1.951-6.824-7.994c0-4.312,3.898-8.283,8.17-8.936l3.627-0.689V68.425z"/>
	<path fill="#005689" d="M215.704,63.366c0,9.457,4.68,17.352,15.695,17.352c7.312,0,13.746-3.217,17.256-7.506v7.416h1.461
		l22.133-2.639v-3.973l-6.145-3.217V23.397h-1.461l-22.715,3.607v4.971l6.043,2.83v32.74c-2.021,1.338-3.412,1.957-6.611,1.957
		c-4.582,0-7.523-1.359-7.523-7.598V23.397h-1.559l-22.715,3.607v4.971l6.141,2.83V63.366z"/>
	<path fill="#005689" d="M192.726,67.267h-19.498c-2.143,0-3.898-1.561-3.898-3.51c0-1.461,1.072-3.023,2.436-3.996
		c2.926,0.877,5.364,1.072,8.969,1.072c14.04,0,23.691-6.336,23.691-18.229c0-5.365-2.242-8.385-5.655-11.506l9.243,2.883
		l0.018-10.877l-14.721,2.732c-3.411-1.271-8.187-2.834-12.576-2.834c-14.037,0-23.784,7.219-23.784,19.016
		c0,7.215,3.606,12.574,9.065,15.598l0.436,0.27c-3.118,2.145-9.6,7.041-9.6,12.793c0,4.289,2.827,8.48,8.677,9.748v0.016
		c-6.143,1.268-13.064,3.885-13.064,11.002c0,7.311,10.528,14.539,27.687,14.539c21.35,0,30.611-10.057,30.611-23.021
		C210.761,72.237,204.813,67.267,192.726,67.267 M180.733,29.44c3.998,0,6.734,2.791,6.734,12.578
		c0,10.039-2.833,12.088-6.734,12.088c-3.897,0-6.635-2.049-6.635-12.088C174.099,31.733,176.836,29.44,180.733,29.44
		 M180.641,97.69c-9.943,0-13.518-3.883-13.357-7.709c0.106-2.631,1.407-6.035,6.076-6.332h15.498c4.483,0,7.319,3.109,7.319,5.938
		C196.177,95.241,191.95,97.69,180.641,97.69"/>
	<path fill="#ABDDE6" d="M151.366,53.618c0-22.908-10.164-30.422-24.275-30.422c-16.281,0-26.907,10.633-26.907,28.668
		c0,18.52,9.651,28.855,28.37,28.855c10.04,0,17.956-5.287,20.49-8.797l0.274-4.463c-3.805,1.17-7.702,1.854-14.623,1.854
		c-9.945,0-15.901-5.08-15.891-15.695H151.366z M126.798,29.343c4.483,0,6.921,3.258,6.921,16.867l-15.11,0.877
		C118.812,33.188,121.827,29.343,126.798,29.343"/>
	<path fill="#ABDDE6" d="M41.04,79.257h29.831v-4.971l-5.751-2.729l-0.012-35.189c2.177-1.504,4.662-2.311,7.393-2.311
		c4.972,0,7.432,3.137,7.338,7.863v29.637l-5.751,2.729v4.971h29.832v-4.971l-5.947-2.729v-33.73
		c0-10.043-5.791-14.527-13.647-14.527c-7.409,0-14.643,2.633-19.518,7.117h0.02V0.001h-1.462L40.748,3.608v4.777l6.239,2.826
		v60.346l-5.947,2.729V79.257z"/>
	<path fill="#ABDDE6" d="M8.383,64.341c0,10.037,4.767,16.377,15.587,16.377c5.654,0,11.686-1.461,15.121-4.021v-6.719
		c-1.428,0.461-3.898,0.895-5.85,0.895c-5.262,0-6.726-2.729-6.726-8.09V34.024h11.894v-9.359H26.516v-12.77L8.383,14.431v10.234
		L0,26.239v7.785h8.383V64.341z"/>
</g>
</svg>
