<?xml version="1.0" encoding="utf-8"?>
<!-- Generator: Adobe Illustrator 17.0.0, SVG Export Plug-In . SVG Version: 6.00 Build 0)  -->
<!DOCTYPE svg PUBLIC "-//W3C//DTD SVG 1.1//EN" "http://www.w3.org/Graphics/SVG/1.1/DTD/svg11.dtd">
<svg version="1.1" id="Layer_1" xmlns="http://www.w3.org/2000/svg" xmlns:xlink="http://www.w3.org/1999/xlink" x="0px" y="0px"
	 width="800px" height="482.155px" viewBox="0 0 800 482.155" style="enable-background:new 0 0 800 482.155;" xml:space="preserve"
	>
<style type="text/css">
	.st0{fill:#212125;}
	.st1{fill:#ACACB0;}
	.st2{fill:#8DB32A;}
	.st3{fill:#5A7BBE;}
	.st4{fill:#C33556;}
	.st5{fill:#DEA700;}
	.st6{fill:#FFFFFF;}
	.st7{fill:#8C8C8C;}
	.st8{fill:#A1A1A4;}
	.st9{fill:#FEFEFE;}
	.st10{fill:#F3F3F5;}
</style>
<g>
	<g>
		<path class="st0" d="M128.551,295.803c-0.051-1.117,1.776-1.117,1.751,0v16.646h10.353c1.117-0.051,1.117,1.776,0,1.726h-11.241
			c-0.482,0-0.863-0.381-0.863-0.862V295.803z"/>
		<path class="st0" d="M157.103,311.688c-1.928-1.954-2.893-4.289-2.893-7.029s0.964-5.075,2.893-7.029
			c1.954-1.953,4.289-2.918,7.055-2.918c2.74,0,5.075,0.965,7.029,2.918c1.954,1.954,2.918,4.289,2.918,7.029
			s-0.964,5.075-2.918,7.029s-4.289,2.918-7.029,2.918C161.391,314.606,159.057,313.642,157.103,311.688z M172.354,304.658
			c0-2.258-0.812-4.187-2.411-5.785c-1.599-1.599-3.527-2.411-5.786-2.411c-2.259,0-4.212,0.813-5.811,2.411
			s-2.411,3.527-2.411,5.785c0,2.259,0.812,4.213,2.411,5.812s3.552,2.385,5.811,2.385c2.258,0,4.187-0.786,5.786-2.385
			C171.542,308.871,172.354,306.917,172.354,304.658z"/>
		<path class="st0" d="M203.927,313.515c0,0.481-0.406,0.862-0.888,0.862c-0.305,0-0.533-0.127-0.71-0.381l-11.368-15.605v15.124
			c0.025,1.116-1.802,1.116-1.751,0v-17.712c0-0.482,0.381-0.863,0.863-0.863c0.305,0,0.533,0.102,0.71,0.33l11.394,15.656v-15.123
			c-0.051-1.117,1.776-1.117,1.751,0V313.515z"/>
		<path class="st0" d="M219.664,296.005c0-0.481,0.381-0.862,0.863-0.862h5.633c2.614,0,4.872,0.938,6.725,2.791
			s2.791,4.111,2.791,6.725c0,2.614-0.938,4.872-2.791,6.725s-4.111,2.791-6.725,2.791h-2.36c-1.117,0.051-1.117-1.776,0-1.726h2.36
			c2.157,0,3.984-0.761,5.506-2.283s2.284-3.35,2.284-5.507s-0.762-3.983-2.284-5.506c-1.497-1.523-3.35-2.284-5.506-2.284h-4.745
			v16.646c0.051,1.116-1.776,1.116-1.751,0V296.005z"/>
		<path class="st0" d="M253.039,311.688c-1.928-1.954-2.893-4.289-2.893-7.029s0.964-5.075,2.893-7.029
			c1.954-1.953,4.289-2.918,7.055-2.918c2.74,0,5.075,0.965,7.029,2.918c1.954,1.954,2.918,4.289,2.918,7.029
			s-0.964,5.075-2.918,7.029s-4.289,2.918-7.029,2.918C257.328,314.606,254.993,313.642,253.039,311.688z M268.29,304.658
			c0-2.258-0.812-4.187-2.411-5.785s-3.527-2.411-5.786-2.411c-2.259,0-4.212,0.813-5.811,2.411s-2.411,3.527-2.411,5.785
			c0,2.259,0.812,4.213,2.411,5.812s3.552,2.385,5.811,2.385c2.258,0,4.187-0.786,5.786-2.385S268.29,306.917,268.29,304.658z"/>
		<path class="st0" d="M299.863,313.515c0,0.481-0.406,0.862-0.888,0.862c-0.305,0-0.533-0.127-0.71-0.381l-11.368-15.605v15.124
			c0.025,1.116-1.802,1.116-1.751,0v-17.712c0-0.482,0.381-0.863,0.863-0.863c0.305,0,0.533,0.102,0.71,0.33l11.394,15.656v-15.123
			c-0.051-1.117,1.776-1.117,1.751,0V313.515z"/>
		<path class="st0" d="M128.83,352.652l8.754-8.069c1.142-0.938,1.726-2.157,1.726-3.629c0-1.294-0.457-2.385-1.396-3.223
			c-0.939-0.862-2.056-1.294-3.375-1.294c-1.294,0-2.411,0.457-3.35,1.396c-0.914,0.939-1.37,2.056-1.396,3.375
			c0.025,1.117-1.802,1.117-1.751,0c0-1.802,0.634-3.35,1.903-4.593c1.269-1.269,2.792-1.903,4.593-1.903s3.35,0.609,4.593,1.802
			c1.244,1.192,1.878,2.664,1.878,4.44c0,2.03-0.761,3.68-2.309,4.974l-7.004,6.521h7.867c1.116-0.051,1.116,1.776,0,1.726h-10.176
			c-0.482,0-0.863-0.381-0.863-0.862C128.525,353.032,128.627,352.829,128.83,352.652z"/>
		<path class="st0" d="M168.573,348.338c0,1.726-0.609,3.197-1.827,4.44c-1.218,1.218-2.689,1.827-4.415,1.827
			c-1.751,0-3.223-0.609-4.466-1.827c-1.218-1.243-1.827-2.715-1.827-4.44v-7.334c0-1.751,0.609-3.223,1.827-4.44
			c1.244-1.243,2.715-1.853,4.466-1.853c1.726,0,3.197,0.609,4.415,1.853c1.218,1.218,1.827,2.689,1.827,4.44V348.338z
			 M166.872,341.004c0-1.269-0.457-2.334-1.345-3.223c-0.888-0.888-1.954-1.319-3.197-1.319c-1.244,0-2.335,0.432-3.223,1.319
			c-0.888,0.889-1.32,1.954-1.32,3.223v7.334c0,1.243,0.432,2.309,1.32,3.197c0.888,0.888,1.979,1.319,3.223,1.319
			c1.243,0,2.309-0.432,3.197-1.319c0.888-0.889,1.345-1.954,1.345-3.197V341.004z"/>
		<path class="st0" d="M187.076,337.402l-2.817,1.624c-0.127,0.076-0.279,0.127-0.457,0.127c-0.482,0-0.863-0.355-0.863-0.838
			c0-0.381,0.177-0.635,0.507-0.812l3.984-2.386c0.178-0.127,0.355-0.178,0.533-0.178c0.482,0,0.863,0.381,0.863,0.863v17.712
			c0.025,1.116-1.801,1.116-1.75,0V337.402z"/>
		<path class="st0" d="M215.221,343.669c1.193,1.294,1.802,2.791,1.802,4.491c0,1.776-0.634,3.299-1.903,4.567
			c-1.243,1.243-2.766,1.878-4.567,1.878s-3.324-0.635-4.593-1.878c-1.269-1.269-1.903-2.791-1.903-4.567
			c0-1.294,0.38-2.537,1.142-3.68l6.09-9.16c0.178-0.254,0.406-0.381,0.71-0.381c0.482,0,0.863,0.381,0.863,0.863
			c0,0.177-0.051,0.329-0.152,0.507l-5.989,9.034c-0.609,0.837-0.913,1.776-0.913,2.816c0,1.294,0.457,2.41,1.396,3.35
			c0.939,0.913,2.055,1.37,3.35,1.37c1.294,0,2.411-0.457,3.35-1.37c0.938-0.939,1.421-2.056,1.421-3.35
			c0-1.243-0.406-2.335-1.244-3.223c-0.837-0.889-1.852-1.396-3.07-1.522c-1.116,0.051-1.116-1.776,0-1.7
			C212.607,341.715,214.028,342.375,215.221,343.669z"/>
	</g>
</g>
<g>
	<path class="st2" d="M379.853,263.388c-1.781,0-3.225-1.442-3.225-3.225v-20.558c0-1.782,1.444-3.225,3.225-3.225
		c1.781,0,3.225,1.442,3.225,3.225v20.558C383.077,261.946,381.634,263.388,379.853,263.388z"/>
</g>
<g>
	<g>
		<path class="st2" d="M379.853,242.833c-1.781,0-3.225-1.442-3.225-3.225v-20.558c0-1.782,1.444-3.225,3.225-3.225
			c1.781,0,3.225,1.442,3.225,3.225v20.558C383.077,241.391,381.634,242.833,379.853,242.833z"/>
	</g>
</g>
<g>
	<g>
		<path class="st3" d="M129.755,176.814c-1.781,0-3.225-1.442-3.225-3.225v-41.115c0-1.782,1.444-3.225,3.225-3.225
			c1.781,0,3.225,1.442,3.225,3.225v41.115C132.98,175.372,131.536,176.814,129.755,176.814z"/>
	</g>
</g>
<g>
	<g>
		<path class="st4" d="M335.523,156.257h-40.58c-1.781,0-3.225-1.442-3.225-3.225s1.444-3.225,3.225-3.225h40.58
			c1.781,0,3.225,1.442,3.225,3.225S337.304,156.257,335.523,156.257z"/>
	</g>
</g>
<g>
	<g>
		<path class="st4" d="M335.523,176.814c-1.781,0-3.225-1.442-3.225-3.225v-20.558c0-1.782,1.444-3.225,3.225-3.225
			c1.781,0,3.225,1.442,3.225,3.225v20.558C338.747,175.372,337.304,176.814,335.523,176.814z"/>
	</g>
</g>
<g>
	<g>
		<path class="st4" d="M294.943,156.257c-1.781,0-3.225-1.442-3.225-3.225v-20.558c0-1.782,1.444-3.225,3.225-3.225
			s3.225,1.442,3.225,3.225v20.558C298.168,154.814,296.724,156.257,294.943,156.257z"/>
	</g>
</g>
<g>
	<g>
		<path class="st5" d="M335.584,264.245c-0.879,0-1.752-0.356-2.389-1.055L209.66,134.644c-1.197-1.319-1.099-3.36,0.219-4.557
			c1.321-1.194,3.36-1.096,4.555,0.217L337.97,258.851c1.197,1.319,1.099,3.36-0.219,4.557
			C337.134,263.968,336.357,264.245,335.584,264.245z"/>
	</g>
</g>
<g>
	<g>
		<path class="st5" d="M500.548,177.274c-0.879,0-1.752-0.356-2.389-1.055l-39.969-41.575c-1.197-1.319-1.099-3.36,0.219-4.557
			c1.321-1.194,3.36-1.096,4.555,0.217l39.969,41.575c1.197,1.319,1.099,3.36-0.219,4.557
			C502.098,176.997,501.321,177.274,500.548,177.274z"/>
	</g>
</g>
<g>
	<g>
		<path class="st3" d="M633.312,176.814c-1.781,0-3.225-1.442-3.225-3.225v-41.115c0-1.782,1.444-3.225,3.225-3.225
			c1.781,0,3.225,1.442,3.225,3.225v41.115C636.537,175.372,635.093,176.814,633.312,176.814z"/>
	</g>
</g>
<g>
	<g>
		<path class="st4" d="M167.022,135.699h-37.264c-1.781,0-3.225-1.442-3.225-3.225s1.444-3.225,3.225-3.225h37.264
			c1.781,0,3.225,1.442,3.225,3.225S168.803,135.699,167.022,135.699z"/>
	</g>
</g>
<g>
	<g>
		<path class="st5" d="M167.019,156.257h-37.264c-1.781,0-3.225-1.442-3.225-3.225s1.444-3.225,3.225-3.225h37.264
			c1.781,0,3.225,1.442,3.225,3.225S168.8,156.257,167.019,156.257z"/>
	</g>
</g>
<g>
	<g>
		<path class="st2" d="M167.019,176.814h-37.264c-1.781,0-3.225-1.442-3.225-3.225s1.444-3.225,3.225-3.225h37.264
			c1.781,0,3.225,1.442,3.225,3.225S168.8,176.814,167.019,176.814z"/>
	</g>
</g>
<g>
	<g>
		<path class="st4" d="M417.209,222.273h-37.357c-1.781,0-3.225-1.442-3.225-3.225s1.444-3.225,3.225-3.225h37.357
			c1.781,0,3.225,1.442,3.225,3.225S418.99,222.273,417.209,222.273z"/>
	</g>
</g>
<g>
	<g>
		<path class="st5" d="M417.209,242.831h-37.357c-1.781,0-3.225-1.442-3.225-3.225s1.444-3.225,3.225-3.225h37.357
			c1.781,0,3.225,1.442,3.225,3.225S418.99,242.831,417.209,242.831z"/>
	</g>
</g>
<g>
	<g>
		<path class="st3" d="M584.124,140.508c-0.825,0-1.65-0.315-2.28-0.945c-7.429-7.426-19.512-7.426-26.941,0
			c-1.26,1.26-3.3,1.26-4.56,0c-1.26-1.26-1.26-3.3,0-4.56c9.942-9.939,26.119-9.939,36.061,0c1.26,1.26,1.26,3.3,0,4.56
			C585.774,140.193,584.949,140.508,584.124,140.508z"/>
	</g>
</g>
<g>
	<g>
		<path class="st3" d="M167.446,227.937c-0.825,0-1.65-0.315-2.28-0.945c-7.43-7.429-19.512-7.423-26.939,0
			c-1.26,1.26-3.3,1.26-4.56,0c-1.26-1.26-1.26-3.3,0-4.56c9.942-9.948,26.117-9.948,36.059,0c1.26,1.26,1.26,3.3,0,4.56
			C169.096,227.622,168.271,227.937,167.446,227.937z"/>
	</g>
</g>
<g>
	<g>
		<path class="st5" d="M135.946,259.438c-0.825,0-1.65-0.315-2.28-0.945c-4.817-4.815-7.47-11.217-7.47-18.029
			c0-6.812,2.653-13.214,7.47-18.032c1.26-1.26,3.3-1.26,4.56,0c1.26,1.26,1.26,3.3,0,4.56c-3.598,3.599-5.58,8.383-5.58,13.472
			c0,5.089,1.982,9.869,5.58,13.469c1.26,1.26,1.26,3.3,0,4.56C137.597,259.123,136.771,259.438,135.946,259.438z"/>
	</g>
</g>
<g>
	<g>
		<path class="st4" d="M151.695,265.95c-6.528,0-13.058-2.485-18.029-7.457c-1.26-1.26-1.26-3.3,0-4.56c1.26-1.26,3.3-1.26,4.56,0
			c7.429,7.429,19.51,7.429,26.939,0c1.26-1.26,3.3-1.26,4.56,0c1.26,1.26,1.26,3.3,0,4.56
			C164.755,263.466,158.225,265.95,151.695,265.95z"/>
	</g>
</g>
<g>
	<g>
		<path class="st2" d="M252.998,243.689c-1.781,0-3.225-1.442-3.225-3.225c0-10.502-8.545-19.049-19.049-19.049
			c-1.781,0-3.225-1.442-3.225-3.225s1.444-3.225,3.225-3.225c14.059,0,25.499,11.438,25.499,25.499
			C256.223,242.247,254.779,243.689,252.998,243.689z"/>
	</g>
</g>
<g>
	<g>
		<path class="st4" d="M208.45,243.689c-1.781,0-3.225-1.442-3.225-3.225c0-14.061,11.439-25.499,25.499-25.499
			c1.781,0,3.225,1.442,3.225,3.225s-1.444,3.225-3.225,3.225c-10.504,0-19.049,8.547-19.049,19.049
			C211.675,242.247,210.231,243.689,208.45,243.689z"/>
	</g>
</g>
<g>
	<g>
		<path class="st3" d="M230.724,265.963c-14.059,0-25.499-11.438-25.499-25.499c0-1.782,1.444-3.225,3.225-3.225
			s3.225,1.442,3.225,3.225c0,10.502,8.545,19.049,19.049,19.049c1.781,0,3.225,1.442,3.225,3.225S232.505,265.963,230.724,265.963z
			"/>
	</g>
</g>
<g>
	<g>
		<path class="st5" d="M230.724,265.963c-1.781,0-3.225-1.442-3.225-3.225s1.444-3.225,3.225-3.225
			c10.504,0,19.049-8.547,19.049-19.049c0-1.782,1.444-3.225,3.225-3.225s3.225,1.442,3.225,3.225
			C256.223,254.525,244.784,265.963,230.724,265.963z"/>
	</g>
</g>
<g>
	<g>
		<path class="st2" d="M500.546,177.274c-1.781,0-3.225-1.442-3.225-3.225v-41.572c0-1.782,1.444-3.225,3.225-3.225
			c1.781,0,3.225,1.442,3.225,3.225v41.572C503.771,175.832,502.327,177.274,500.546,177.274z"/>
	</g>
</g>
<g>
	<g>
		<path class="st4" d="M460.578,177.274c-1.781,0-3.225-1.442-3.225-3.225v-41.575c0-1.782,1.444-3.225,3.225-3.225
			c1.781,0,3.225,1.442,3.225,3.225v41.575C463.803,175.832,462.359,177.274,460.578,177.274z"/>
	</g>
</g>
<g>
	<g>
		<path class="st4" d="M670.579,135.699h-37.264c-1.781,0-3.225-1.442-3.225-3.225s1.444-3.225,3.225-3.225h37.264
			c1.781,0,3.225,1.442,3.225,3.225S672.359,135.699,670.579,135.699z"/>
	</g>
</g>
<g>
	<g>
		<path class="st5" d="M670.576,156.257h-37.264c-1.781,0-3.225-1.442-3.225-3.225s1.444-3.225,3.225-3.225h37.264
			c1.781,0,3.225,1.442,3.225,3.225S672.357,156.257,670.576,156.257z"/>
	</g>
</g>
<g>
	<g>
		<path class="st2" d="M670.576,176.814h-37.264c-1.781,0-3.225-1.442-3.225-3.225s1.444-3.225,3.225-3.225h37.264
			c1.781,0,3.225,1.442,3.225,3.225S672.357,176.814,670.576,176.814z"/>
	</g>
</g>
<g>
	<g>
		<path class="st2" d="M335.523,264.247c-1.781,0-3.225-1.442-3.225-3.225v-41.971c0-1.782,1.444-3.225,3.225-3.225
			c1.781,0,3.225,1.442,3.225,3.225v41.971C338.747,262.804,337.304,264.247,335.523,264.247z"/>
	</g>
</g>
<g>
	<g>
		<path class="st2" d="M252.015,177.274c-1.781,0-3.225-1.442-3.225-3.225v-41.572c0-1.782,1.444-3.225,3.225-3.225
			c1.781,0,3.225,1.442,3.225,3.225v41.572C255.24,175.832,253.796,177.274,252.015,177.274z"/>
	</g>
</g>
<g>
	<g>
		<path class="st4" d="M212.047,177.274c-1.781,0-3.225-1.442-3.225-3.225v-41.575c0-1.782,1.444-3.225,3.225-3.225
			s3.225,1.442,3.225,3.225v41.575C215.271,175.832,213.828,177.274,212.047,177.274z"/>
	</g>
</g>
<g>
	<g>
		<path class="st4" d="M294.943,263.39c-1.781,0-3.225-1.442-3.225-3.225v-41.114c0-1.782,1.444-3.225,3.225-3.225
			s3.225,1.442,3.225,3.225v41.114C298.168,261.948,296.724,263.39,294.943,263.39z"/>
	</g>
</g>
<g>
	<g>
		<path class="st2" d="M335.523,156.257c-1.781,0-3.225-1.442-3.225-3.225v-20.558c0-1.782,1.444-3.225,3.225-3.225
			c1.781,0,3.225,1.442,3.225,3.225v20.558C338.747,154.814,337.304,156.257,335.523,156.257z"/>
	</g>
</g>
<g>
	<g>
		<path class="st3" d="M294.943,176.814c-1.781,0-3.225-1.442-3.225-3.225v-20.558c0-1.782,1.444-3.225,3.225-3.225
			s3.225,1.442,3.225,3.225v20.558C298.168,175.372,296.724,176.814,294.943,176.814z"/>
	</g>
</g>
<g>
	<g>
		<path class="st4" d="M411.92,166.537h-27.849c-1.781,0-3.225-1.442-3.225-3.225s1.444-3.225,3.225-3.225h27.849
			c1.781,0,3.225,1.442,3.225,3.225S413.701,166.537,411.92,166.537z"/>
	</g>
</g>
<g>
	<g>
		<path class="st3" d="M379.232,176.816c-0.447,0-0.899-0.091-1.332-0.29c-1.622-0.737-2.338-2.648-1.603-4.27l18.678-41.115
			c0.737-1.622,2.65-2.343,4.27-1.6c1.622,0.737,2.338,2.648,1.603,4.27l-18.678,41.115
			C381.63,176.113,380.457,176.816,379.232,176.816z"/>
	</g>
</g>
<g>
	<g>
		<path class="st2" d="M416.591,176.816c0.447,0,0.899-0.091,1.332-0.29c1.622-0.737,2.338-2.648,1.603-4.27l-18.678-41.115
			c-0.737-1.622-2.65-2.343-4.27-1.6c-1.622,0.737-2.338,2.648-1.603,4.27l18.677,41.115
			C414.193,176.113,415.366,176.816,416.591,176.816z"/>
	</g>
</g>
<g>
	<g>
		<path class="st5" d="M552.623,172.005c-0.825,0-1.65-0.315-2.28-0.945c-9.942-9.942-9.942-26.116,0-36.058
			c1.26-1.26,3.3-1.26,4.56,0c1.26,1.26,1.26,3.3,0,4.56c-7.426,7.426-7.426,19.512,0,26.938c1.26,1.26,1.26,3.3,0,4.56
			C554.273,171.69,553.448,172.005,552.623,172.005z"/>
	</g>
</g>
<g>
	<g>
		<path class="st4" d="M568.374,178.53c-6.81,0-13.214-2.652-18.03-7.47c-1.26-1.26-1.26-3.3,0-4.56s3.3-1.26,4.56,0
			c3.599,3.599,8.383,5.58,13.47,5.58c5.087,0,9.871-1.981,13.47-5.58c1.26-1.26,3.3-1.26,4.56,0s1.26,3.3,0,4.56
			C581.587,175.879,575.184,178.53,568.374,178.53z"/>
	</g>
</g>
</svg>
