<?xml version="1.0" encoding="utf-8"?>
<!-- Generator: Adobe Illustrator 17.0.0, SVG Export Plug-In . SVG Version: 6.00 Build 0)  -->
<!DOCTYPE svg PUBLIC "-//W3C//DTD SVG 1.1//EN" "http://www.w3.org/Graphics/SVG/1.1/DTD/svg11.dtd">
<svg version="1.1" id="Layer_1" xmlns="http://www.w3.org/2000/svg" xmlns:xlink="http://www.w3.org/1999/xlink" x="0px" y="0px"
	 width="800px" height="482.155px" viewBox="0 0 800 482.155" style="enable-background:new 0 0 800 482.155;" xml:space="preserve"
	>
<style type="text/css">
	.st0{fill:#212125;}
	.st1{fill:#ACACB0;}
	.st2{fill:#8DB32A;}
	.st3{fill:#5A7BBE;}
	.st4{fill:#C33556;}
	.st5{fill:#DEA700;}
	.st6{fill:#FFFFFF;}
	.st7{fill:#8C8C8C;}
	.st8{fill:#A1A1A4;}
	.st9{fill:#FEFEFE;}
	.st10{fill:#F3F3F5;}
</style>
<g>
	<path class="st6" d="M128.55,296.053c-0.051-1.117,1.776-1.117,1.751,0v16.646h10.354c1.116-0.051,1.116,1.776,0,1.726h-11.241
		c-0.482,0-0.863-0.381-0.863-0.862V296.053z"/>
	<path class="st6" d="M157.103,311.938c-1.929-1.954-2.893-4.289-2.893-7.029s0.964-5.075,2.893-7.029
		c1.954-1.953,4.288-2.918,7.055-2.918c2.74,0,5.074,0.965,7.028,2.918c1.954,1.954,2.918,4.289,2.918,7.029
		s-0.964,5.075-2.918,7.029s-4.288,2.918-7.028,2.918C161.391,314.856,159.057,313.892,157.103,311.938z M172.354,304.909
		c0-2.258-0.813-4.187-2.411-5.785s-3.527-2.411-5.785-2.411c-2.259,0-4.213,0.813-5.812,2.411s-2.41,3.527-2.41,5.785
		c0,2.259,0.812,4.213,2.41,5.812s3.553,2.385,5.812,2.385c2.258,0,4.187-0.786,5.785-2.385S172.354,307.167,172.354,304.909z"/>
	<path class="st6" d="M203.926,313.765c0,0.481-0.405,0.862-0.888,0.862c-0.305,0-0.533-0.127-0.711-0.381l-11.368-15.605v15.124
		c0.025,1.116-1.802,1.116-1.751,0v-17.712c0-0.482,0.381-0.863,0.863-0.863c0.305,0,0.532,0.102,0.71,0.33l11.394,15.656v-15.123
		c-0.051-1.117,1.776-1.117,1.751,0V313.765z"/>
	<path class="st6" d="M219.665,296.255c0-0.481,0.381-0.862,0.862-0.862h5.634c2.613,0,4.872,0.938,6.725,2.791
		s2.791,4.111,2.791,6.725c0,2.614-0.938,4.872-2.791,6.725s-4.111,2.791-6.725,2.791h-2.36c-1.116,0.051-1.116-1.776,0-1.726h2.36
		c2.156,0,3.983-0.761,5.506-2.283s2.284-3.35,2.284-5.507s-0.762-3.983-2.284-5.506c-1.497-1.523-3.35-2.284-5.506-2.284h-4.745
		v16.646c0.051,1.116-1.776,1.116-1.751,0V296.255z"/>
	<path class="st6" d="M253.039,311.938c-1.928-1.954-2.893-4.289-2.893-7.029s0.965-5.075,2.893-7.029
		c1.954-1.953,4.289-2.918,7.055-2.918c2.74,0,5.075,0.965,7.029,2.918c1.954,1.954,2.918,4.289,2.918,7.029
		s-0.964,5.075-2.918,7.029s-4.289,2.918-7.029,2.918C257.328,314.856,254.993,313.892,253.039,311.938z M268.29,304.909
		c0-2.258-0.812-4.187-2.41-5.785s-3.527-2.411-5.786-2.411s-4.212,0.813-5.811,2.411s-2.411,3.527-2.411,5.785
		c0,2.259,0.813,4.213,2.411,5.812s3.552,2.385,5.811,2.385s4.188-0.786,5.786-2.385S268.29,307.167,268.29,304.909z"/>
	<path class="st6" d="M299.863,313.765c0,0.481-0.406,0.862-0.889,0.862c-0.305,0-0.532-0.127-0.71-0.381l-11.368-15.605v15.124
		c0.025,1.116-1.802,1.116-1.751,0v-17.712c0-0.482,0.381-0.863,0.862-0.863c0.305,0,0.533,0.102,0.711,0.33l11.394,15.656v-15.123
		c-0.051-1.117,1.776-1.117,1.751,0V313.765z"/>
	<path class="st6" d="M128.83,352.902l8.755-8.069c1.142-0.938,1.726-2.157,1.726-3.629c0-1.294-0.457-2.385-1.396-3.223
		c-0.939-0.862-2.056-1.294-3.375-1.294c-1.295,0-2.411,0.457-3.35,1.396c-0.914,0.939-1.37,2.056-1.396,3.375
		c0.025,1.117-1.802,1.117-1.751,0c0-1.802,0.634-3.35,1.902-4.593c1.27-1.269,2.792-1.903,4.594-1.903s3.35,0.609,4.593,1.802
		s1.878,2.664,1.878,4.44c0,2.03-0.762,3.68-2.31,4.974l-7.004,6.521h7.867c1.116-0.051,1.116,1.776,0,1.726h-10.176
		c-0.482,0-0.863-0.381-0.863-0.862C128.525,353.283,128.626,353.079,128.83,352.902z"/>
	<path class="st6" d="M168.573,348.588c0,1.726-0.609,3.197-1.827,4.44c-1.218,1.218-2.689,1.827-4.415,1.827
		c-1.751,0-3.223-0.609-4.467-1.827c-1.218-1.243-1.827-2.715-1.827-4.44v-7.334c0-1.751,0.609-3.223,1.827-4.44
		c1.244-1.243,2.716-1.853,4.467-1.853c1.726,0,3.197,0.609,4.415,1.853c1.218,1.218,1.827,2.689,1.827,4.44V348.588z
		 M166.873,341.254c0-1.269-0.457-2.334-1.345-3.223c-0.889-0.888-1.954-1.319-3.197-1.319c-1.244,0-2.335,0.432-3.223,1.319
		c-0.889,0.889-1.32,1.954-1.32,3.223v7.334c0,1.243,0.432,2.309,1.32,3.197c0.888,0.888,1.979,1.319,3.223,1.319
		c1.243,0,2.309-0.432,3.197-1.319c0.888-0.889,1.345-1.954,1.345-3.197V341.254z"/>
	<path class="st6" d="M187.076,337.652l-2.816,1.624c-0.127,0.076-0.279,0.127-0.457,0.127c-0.482,0-0.862-0.355-0.862-0.838
		c0-0.381,0.177-0.635,0.507-0.812l3.984-2.386c0.178-0.127,0.355-0.178,0.532-0.178c0.482,0,0.863,0.381,0.863,0.863v17.712
		c0.025,1.116-1.802,1.116-1.751,0V337.652z"/>
	<path class="st6" d="M215.221,343.919c1.192,1.294,1.802,2.791,1.802,4.491c0,1.776-0.635,3.299-1.903,4.567
		c-1.243,1.243-2.766,1.878-4.567,1.878s-3.324-0.635-4.594-1.878c-1.269-1.269-1.902-2.791-1.902-4.567
		c0-1.294,0.38-2.537,1.142-3.68l6.09-9.16c0.178-0.254,0.406-0.381,0.711-0.381c0.481,0,0.862,0.381,0.862,0.863
		c0,0.177-0.051,0.329-0.152,0.507l-5.988,9.034c-0.609,0.837-0.913,1.776-0.913,2.816c0,1.294,0.456,2.41,1.396,3.35
		c0.938,0.913,2.055,1.37,3.35,1.37c1.294,0,2.41-0.457,3.35-1.37c0.938-0.939,1.421-2.056,1.421-3.35
		c0-1.243-0.406-2.335-1.244-3.223c-0.837-0.889-1.852-1.396-3.07-1.522c-1.116,0.051-1.116-1.776,0-1.7
		C212.607,341.965,214.028,342.625,215.221,343.919z"/>
</g>
<g>
	<g>
		<path class="st9" d="M129.755,177.564c-2.054,0-3.725-1.671-3.725-3.725v-41.115c0-2.054,1.671-3.725,3.725-3.725h37.267
			c2.054,0,3.725,1.671,3.725,3.725c0,2.055-1.671,3.726-3.725,3.726H133.48v13.108h33.54c2.054,0,3.725,1.671,3.725,3.725
			s-1.671,3.725-3.725,3.725h-33.54v13.107h33.54c2.054,0,3.725,1.671,3.725,3.725s-1.671,3.725-3.725,3.725H129.755z"/>
	</g>
	<g>
		<path class="st9" d="M379.853,264.139c-2.054,0-3.725-1.671-3.725-3.726v-41.112c0-2.055,1.671-3.727,3.725-3.727h37.356
			c2.054,0,3.725,1.671,3.725,3.725s-1.671,3.725-3.725,3.725h-33.632v13.108h33.632c2.054,0,3.725,1.671,3.725,3.725
			s-1.671,3.725-3.725,3.725h-33.632v16.832C383.577,262.468,381.906,264.139,379.853,264.139z"/>
	</g>
	<g>
		<path class="st9" d="M416.591,177.566c-1.459,0-2.791-0.856-3.393-2.183l-3.679-8.096h-23.216l-3.679,8.096
			c-0.603,1.326-1.935,2.183-3.393,2.183c-0.535,0-1.053-0.112-1.54-0.334c-1.868-0.85-2.698-3.063-1.851-4.932l18.678-41.116
			c0.028-0.063,0.062-0.118,0.097-0.174c0.082-0.146,0.136-0.241,0.197-0.335c0.078-0.117,0.162-0.228,0.251-0.333
			c0.063-0.076,0.128-0.15,0.199-0.223c0.105-0.106,0.216-0.203,0.33-0.295c0.072-0.058,0.143-0.112,0.215-0.163
			c0.141-0.096,0.28-0.174,0.425-0.248c0.055-0.034,0.097-0.06,0.143-0.079l0.099-0.035c0.125-0.055,0.275-0.104,0.428-0.146
			c0.111-0.033,0.192-0.056,0.274-0.073c0.133-0.026,0.265-0.039,0.397-0.051c0.137-0.014,0.237-0.023,0.337-0.023
			c0.101,0,0.201,0.01,0.302,0.02c0.169,0.016,0.301,0.028,0.431,0.055c0.086,0.018,0.168,0.041,0.25,0.065
			c0.18,0.051,0.33,0.1,0.475,0.162c0.125,0.047,0.167,0.072,0.208,0.099c0.159,0.082,0.299,0.161,0.434,0.253
			c0.076,0.052,0.147,0.109,0.219,0.166c0.113,0.09,0.224,0.187,0.329,0.292c0.074,0.077,0.138,0.15,0.201,0.226
			c0.09,0.107,0.173,0.217,0.251,0.333c0.063,0.095,0.117,0.192,0.17,0.292c0.062,0.098,0.096,0.154,0.124,0.216l18.678,41.116
			c0.848,1.871,0.018,4.083-1.852,4.933C417.645,177.453,417.126,177.566,416.591,177.566z M406.136,159.837l-8.225-18.104
			l-8.224,18.104H406.136z"/>
	</g>
	<g>
		<path class="st9" d="M568.374,179.28c-6.945,0-13.475-2.705-18.385-7.616c-10.136-10.137-10.136-26.629,0-36.765
			c4.903-4.901,11.432-7.601,18.385-7.601c6.952,0,13.48,2.699,18.384,7.601c1.451,1.452,1.451,3.815,0,5.268
			c-0.704,0.703-1.64,1.091-2.634,1.091s-1.93-0.388-2.634-1.091c-3.498-3.497-8.156-5.423-13.116-5.423
			c-4.961,0-9.619,1.926-13.117,5.423c-3.497,3.497-5.423,8.154-5.423,13.115c0,4.96,1.926,9.618,5.423,13.115
			c3.504,3.504,8.162,5.434,13.117,5.434s9.613-1.93,13.116-5.434c0.704-0.704,1.639-1.092,2.634-1.092s1.93,0.388,2.634,1.092
			c1.451,1.452,1.451,3.814,0,5.267C581.848,176.575,575.318,179.28,568.374,179.28z"/>
	</g>
	<g>
		<path class="st9" d="M151.695,266.7c-6.952,0-13.48-2.7-18.383-7.604c-4.911-4.91-7.616-11.438-7.616-18.383
			c0-6.942,2.705-13.472,7.616-18.385c4.903-4.906,11.432-7.607,18.384-7.607s13.48,2.701,18.383,7.607
			c1.452,1.452,1.452,3.814,0,5.267c-0.703,0.703-1.639,1.091-2.634,1.091c-0.994,0-1.93-0.388-2.634-1.091
			c-3.497-3.497-8.154-5.423-13.114-5.423s-9.618,1.926-13.117,5.423c-3.505,3.506-5.435,8.164-5.435,13.118
			c0,4.953,1.93,9.61,5.435,13.115c3.498,3.499,8.156,5.426,13.116,5.426c4.959,0,9.617-1.927,13.115-5.426
			c0.704-0.704,1.639-1.091,2.634-1.091s1.93,0.387,2.634,1.091c1.452,1.452,1.452,3.815,0,5.268
			C165.178,264,158.649,266.7,151.695,266.7z"/>
	</g>
	<g>
		<path class="st9" d="M230.725,266.713c-14.336,0-25.999-11.663-25.999-25.999c0-14.335,11.663-25.998,25.999-25.998
			c14.335,0,25.998,11.663,25.998,25.998C256.723,255.05,245.06,266.713,230.725,266.713z M230.725,222.165
			c-10.229,0-18.55,8.321-18.55,18.549c0,10.229,8.321,18.55,18.55,18.55c10.228,0,18.549-8.321,18.549-18.55
			C249.273,230.486,240.952,222.165,230.725,222.165z"/>
	</g>
	<g>
		<path class="st9" d="M500.548,178.025c-0.506,0-1-0.102-1.468-0.302c-0.049-0.021-0.104-0.051-0.157-0.082
			c-0.192-0.099-0.351-0.181-0.496-0.283c-0.054-0.036-0.107-0.082-0.16-0.128c-0.181-0.148-0.304-0.25-0.414-0.366l-33.55-34.891
			v32.326c0,2.055-1.671,3.726-3.725,3.726s-3.725-1.671-3.725-3.726v-41.611l0.009-0.075c0.002-0.096,0.017-0.212,0.032-0.327
			l0.51-0.051l-0.497-0.058c0.011-0.094,0.023-0.188,0.044-0.278c0.019-0.083,0.048-0.172,0.077-0.261l0.52,0.021l-0.477-0.151
			c0.031-0.099,0.063-0.196,0.104-0.29c0.041-0.09,0.088-0.172,0.136-0.254l0.49,0.148l-0.439-0.239
			c0.053-0.098,0.106-0.193,0.17-0.284c0.047-0.066,0.1-0.129,0.152-0.189c0.142-0.168,0.231-0.274,0.333-0.37
			c0.102-0.104,0.152-0.14,0.204-0.175c0.144-0.111,0.258-0.2,0.381-0.278c0.077-0.047,0.152-0.086,0.228-0.125
			c0.167-0.086,0.293-0.147,0.428-0.199c0.08-0.031,0.16-0.054,0.24-0.077c0.183-0.053,0.318-0.09,0.46-0.113
			c0.088-0.015,0.177-0.022,0.265-0.029l0.129-0.013c0.074-0.011,0.148-0.02,0.227-0.02h0.038l0.087,0.011
			c0.069,0.002,0.155,0.012,0.24,0.022l0.067,0.512l0.057-0.497c0.115,0.013,0.23,0.027,0.342,0.053
			c0.077,0.017,0.154,0.042,0.231,0.068l-0.028,0.517l0.148-0.478c0.112,0.035,0.225,0.071,0.332,0.119
			c0.076,0.034,0.149,0.075,0.224,0.117l-0.11,0.513l0.242-0.438c0.091,0.05,0.181,0.101,0.265,0.159
			c0.073,0.051,0.143,0.109,0.211,0.169l-0.217,0.473l0.324-0.38c0.081,0.068,0.16,0.138,0.235,0.215l33.555,34.896v-32.324
			c0-2.054,1.671-3.725,3.725-3.725s3.725,1.671,3.725,3.725v41.604l-0.008,0.073c-0.002,0.097-0.016,0.21-0.03,0.324l-0.514,0.072
			l0.497,0.059c-0.011,0.089-0.022,0.177-0.042,0.262c-0.02,0.09-0.051,0.185-0.083,0.278l-0.525-0.001l0.476,0.152
			c-0.027,0.086-0.056,0.171-0.092,0.253c-0.037,0.084-0.081,0.163-0.127,0.241l-0.514-0.106l0.438,0.243
			c-0.049,0.087-0.098,0.174-0.155,0.255c-0.045,0.065-0.102,0.132-0.159,0.197l-0.465-0.226l0.383,0.322
			c-0.077,0.091-0.154,0.182-0.242,0.264c-0.108,0.109-0.163,0.148-0.218,0.187l-0.417-0.312l0.312,0.392
			c-0.075,0.06-0.15,0.118-0.231,0.17c-0.095,0.061-0.194,0.112-0.295,0.163l-0.332-0.392l0.231,0.443
			c-0.073,0.038-0.146,0.075-0.225,0.106c-0.141,0.056-0.281,0.095-0.422,0.132c-0.121,0.037-0.186,0.056-0.254,0.069
			C501.006,178.001,500.774,178.025,500.548,178.025z"/>
	</g>
	<g>
		<path class="st9" d="M633.312,177.564c-2.054,0-3.725-1.671-3.725-3.725v-41.115c0-2.054,1.671-3.725,3.725-3.725h37.268
			c2.054,0,3.725,1.671,3.725,3.725c0,2.055-1.671,3.726-3.725,3.726h-33.543v13.108h33.54c2.054,0,3.725,1.671,3.725,3.725
			s-1.671,3.725-3.725,3.725h-33.54v13.107h33.54c2.054,0,3.725,1.671,3.725,3.725s-1.671,3.725-3.725,3.725H633.312z"/>
	</g>
	<g>
		<path class="st9" d="M335.522,264.997c-1.221,0-2.365-0.602-3.063-1.61l-33.792-35.154v32.183c0,2.054-1.671,3.725-3.726,3.725
			c-2.054,0-3.725-1.671-3.725-3.725v-39.934l-75.446-78.506v32.323c0,2.055-1.671,3.726-3.725,3.726s-3.725-1.671-3.725-3.726
			v-41.611l0.009-0.077c0.002-0.093,0.017-0.207,0.031-0.322l0.511-0.058l-0.496-0.057c0.01-0.092,0.021-0.183,0.041-0.271
			c0.021-0.089,0.049-0.174,0.077-0.26l0.529-0.009l-0.477-0.152c0.029-0.091,0.06-0.181,0.098-0.268
			c0.037-0.081,0.08-0.157,0.123-0.233l0.514,0.106l-0.438-0.241c0.049-0.089,0.1-0.178,0.158-0.261
			c0.045-0.065,0.098-0.127,0.151-0.188l0.454,0.238l-0.383-0.322c0.084-0.099,0.167-0.196,0.261-0.285
			c0.102-0.104,0.152-0.14,0.204-0.175c0.145-0.112,0.258-0.201,0.383-0.279c0.075-0.046,0.15-0.085,0.226-0.124
			c0.167-0.086,0.293-0.147,0.428-0.199c0.077-0.03,0.157-0.054,0.238-0.076c0.185-0.054,0.32-0.091,0.462-0.114
			c0.088-0.015,0.175-0.022,0.263-0.029l0.132-0.013c0.074-0.011,0.148-0.02,0.226-0.02h0.037l0.087,0.011
			c0.07,0.002,0.155,0.012,0.241,0.022l0.067,0.512l0.057-0.497c0.115,0.013,0.23,0.027,0.342,0.053
			c0.077,0.017,0.154,0.042,0.231,0.068l-0.021,0.52l0.15-0.478c0.108,0.034,0.217,0.069,0.319,0.115
			c0.078,0.035,0.152,0.077,0.228,0.119l-0.123,0.505l0.241-0.438c0.094,0.052,0.187,0.104,0.274,0.164
			c0.076,0.054,0.143,0.111,0.209,0.168l-0.231,0.461l0.321-0.384c0.091,0.076,0.18,0.152,0.261,0.238l33.552,34.904v-32.336
			c0-2.054,1.671-3.725,3.725-3.725s3.725,1.671,3.725,3.725v40.088l76.059,79.143v-32.656c0-2.054,1.671-3.725,3.725-3.725
			s3.725,1.671,3.725,3.725v41.397c0.221,1.189-0.21,2.467-1.16,3.329c-0.687,0.624-1.576,0.968-2.503,0.968L335.522,264.997z"/>
	</g>
	<g>
		<path class="st9" d="M335.522,177.564c-2.054,0-3.725-1.671-3.725-3.725v-16.832h-33.13v16.832c0,2.054-1.671,3.725-3.726,3.725
			c-2.054,0-3.725-1.671-3.725-3.725v-41.115c0-2.054,1.671-3.725,3.725-3.725c2.055,0,3.726,1.671,3.726,3.725v16.834h33.13
			v-16.834c0-2.054,1.671-3.725,3.725-3.725s3.725,1.671,3.725,3.725v41.115C339.247,175.893,337.576,177.564,335.522,177.564z"/>
	</g>
</g>
<g>
	<path class="st2" d="M379.853,263.639c-1.781,0-3.225-1.442-3.225-3.225v-20.558c0-1.782,1.444-3.225,3.225-3.225
		c1.781,0,3.225,1.442,3.225,3.225v20.558C383.077,262.196,381.633,263.639,379.853,263.639z"/>
</g>
<g>
	<g>
		<path class="st2" d="M379.853,243.083c-1.781,0-3.225-1.442-3.225-3.225v-20.558c0-1.782,1.444-3.225,3.225-3.225
			c1.781,0,3.225,1.442,3.225,3.225v20.558C383.077,241.641,381.633,243.083,379.853,243.083z"/>
	</g>
</g>
<g>
	<g>
		<path class="st3" d="M129.755,177.064c-1.781,0-3.225-1.442-3.225-3.225v-41.115c0-1.782,1.444-3.225,3.225-3.225
			c1.781,0,3.225,1.442,3.225,3.225v41.115C132.98,175.622,131.536,177.064,129.755,177.064z"/>
	</g>
</g>
<g>
	<g>
		<path class="st4" d="M335.523,156.507h-40.58c-1.781,0-3.225-1.442-3.225-3.225s1.444-3.225,3.225-3.225h40.58
			c1.781,0,3.225,1.442,3.225,3.225S337.303,156.507,335.523,156.507z"/>
	</g>
</g>
<g>
	<g>
		<path class="st4" d="M335.523,177.064c-1.781,0-3.225-1.442-3.225-3.225v-20.558c0-1.782,1.444-3.225,3.225-3.225
			c1.781,0,3.225,1.442,3.225,3.225v20.558C338.747,175.622,337.303,177.064,335.523,177.064z"/>
	</g>
</g>
<g>
	<g>
		<path class="st4" d="M294.943,156.507c-1.781,0-3.225-1.442-3.225-3.225v-20.558c0-1.782,1.444-3.225,3.225-3.225
			s3.225,1.442,3.225,3.225v20.558C298.168,155.064,296.724,156.507,294.943,156.507z"/>
	</g>
</g>
<g>
	<g>
		<path class="st5" d="M335.584,264.495c-0.879,0-1.752-0.356-2.389-1.055L209.66,134.894c-1.197-1.319-1.099-3.36,0.219-4.557
			c1.321-1.194,3.36-1.096,4.555,0.217L337.97,259.101c1.197,1.319,1.099,3.36-0.219,4.557
			C337.134,264.218,336.357,264.495,335.584,264.495z"/>
	</g>
</g>
<g>
	<g>
		<path class="st5" d="M500.548,177.524c-0.879,0-1.752-0.356-2.389-1.055l-39.969-41.575c-1.197-1.319-1.099-3.36,0.219-4.557
			c1.321-1.194,3.36-1.096,4.555,0.217l39.969,41.575c1.197,1.319,1.099,3.36-0.219,4.557
			C502.098,177.247,501.321,177.524,500.548,177.524z"/>
	</g>
</g>
<g>
	<g>
		<path class="st3" d="M633.312,177.064c-1.781,0-3.225-1.442-3.225-3.225v-41.115c0-1.782,1.444-3.225,3.225-3.225
			s3.225,1.442,3.225,3.225v41.115C636.537,175.622,635.093,177.064,633.312,177.064z"/>
	</g>
</g>
<g>
	<g>
		<path class="st4" d="M167.022,135.949h-37.264c-1.781,0-3.225-1.442-3.225-3.225s1.444-3.225,3.225-3.225h37.264
			c1.781,0,3.225,1.442,3.225,3.225S168.803,135.949,167.022,135.949z"/>
	</g>
</g>
<g>
	<g>
		<path class="st5" d="M167.019,156.507h-37.264c-1.781,0-3.225-1.442-3.225-3.225s1.444-3.225,3.225-3.225h37.264
			c1.781,0,3.225,1.442,3.225,3.225S168.8,156.507,167.019,156.507z"/>
	</g>
</g>
<g>
	<g>
		<path class="st2" d="M167.019,177.064h-37.264c-1.781,0-3.225-1.442-3.225-3.225s1.444-3.225,3.225-3.225h37.264
			c1.781,0,3.225,1.442,3.225,3.225S168.8,177.064,167.019,177.064z"/>
	</g>
</g>
<g>
	<g>
		<path class="st4" d="M417.209,222.523h-37.357c-1.781,0-3.225-1.442-3.225-3.225s1.444-3.225,3.225-3.225h37.357
			c1.781,0,3.225,1.442,3.225,3.225S418.99,222.523,417.209,222.523z"/>
	</g>
</g>
<g>
	<g>
		<path class="st5" d="M417.209,243.081h-37.357c-1.781,0-3.225-1.442-3.225-3.225s1.444-3.225,3.225-3.225h37.357
			c1.781,0,3.225,1.442,3.225,3.225S418.99,243.081,417.209,243.081z"/>
	</g>
</g>
<g>
	<g>
		<path class="st3" d="M584.124,140.758c-0.825,0-1.65-0.315-2.28-0.945c-7.429-7.426-19.512-7.426-26.941,0
			c-1.26,1.26-3.3,1.26-4.56,0s-1.26-3.3,0-4.56c9.942-9.939,26.119-9.939,36.061,0c1.26,1.26,1.26,3.3,0,4.56
			C585.774,140.443,584.949,140.758,584.124,140.758z"/>
	</g>
</g>
<g>
	<g>
		<path class="st5" d="M552.623,172.255c-0.825,0-1.65-0.315-2.28-0.945c-9.942-9.942-9.942-26.116,0-36.058
			c1.26-1.26,3.3-1.26,4.56,0c1.26,1.26,1.26,3.3,0,4.56c-7.426,7.426-7.426,19.512,0,26.938c1.26,1.26,1.26,3.3,0,4.56
			C554.273,171.941,553.448,172.255,552.623,172.255z"/>
	</g>
</g>
<g>
	<g>
		<path class="st4" d="M568.374,178.78c-6.81,0-13.214-2.652-18.03-7.47c-1.26-1.26-1.26-3.3,0-4.56c1.26-1.26,3.3-1.26,4.56,0
			c3.599,3.599,8.383,5.58,13.47,5.58c5.087,0,9.871-1.981,13.47-5.58c1.26-1.26,3.3-1.26,4.56,0c1.26,1.26,1.26,3.3,0,4.56
			C581.587,176.129,575.184,178.78,568.374,178.78z"/>
	</g>
</g>
<g>
	<g>
		<path class="st3" d="M167.446,228.187c-0.825,0-1.65-0.315-2.28-0.945c-7.43-7.429-19.512-7.423-26.939,0
			c-1.26,1.26-3.3,1.26-4.56,0c-1.26-1.26-1.26-3.3,0-4.56c9.942-9.948,26.117-9.948,36.059,0c1.26,1.26,1.26,3.3,0,4.56
			C169.096,227.872,168.271,228.187,167.446,228.187z"/>
	</g>
</g>
<g>
	<g>
		<path class="st5" d="M135.946,259.688c-0.825,0-1.65-0.315-2.28-0.945c-4.817-4.815-7.47-11.217-7.47-18.029
			c0-6.812,2.653-13.214,7.47-18.032c1.26-1.26,3.3-1.26,4.56,0c1.26,1.26,1.26,3.3,0,4.56c-3.598,3.599-5.58,8.383-5.58,13.472
			c0,5.089,1.982,9.869,5.58,13.469c1.26,1.26,1.26,3.3,0,4.56C137.596,259.373,136.771,259.688,135.946,259.688z"/>
	</g>
</g>
<g>
	<g>
		<path class="st4" d="M151.695,266.2c-6.528,0-13.058-2.485-18.029-7.457c-1.26-1.26-1.26-3.3,0-4.56c1.26-1.26,3.3-1.26,4.56,0
			c7.429,7.429,19.51,7.429,26.939,0c1.26-1.26,3.3-1.26,4.56,0c1.26,1.26,1.26,3.3,0,4.56
			C164.755,263.716,158.225,266.2,151.695,266.2z"/>
	</g>
</g>
<g>
	<g>
		<path class="st2" d="M252.998,243.939c-1.781,0-3.225-1.442-3.225-3.225c0-10.502-8.545-19.049-19.049-19.049
			c-1.781,0-3.225-1.442-3.225-3.225s1.444-3.225,3.225-3.225c14.059,0,25.499,11.438,25.499,25.499
			C256.223,242.497,254.779,243.939,252.998,243.939z"/>
	</g>
</g>
<g>
	<g>
		<path class="st4" d="M208.45,243.939c-1.781,0-3.225-1.442-3.225-3.225c0-14.061,11.439-25.499,25.499-25.499
			c1.781,0,3.225,1.442,3.225,3.225s-1.444,3.225-3.225,3.225c-10.504,0-19.049,8.547-19.049,19.049
			C211.675,242.497,210.231,243.939,208.45,243.939z"/>
	</g>
</g>
<g>
	<g>
		<path class="st3" d="M230.724,266.213c-14.059,0-25.499-11.438-25.499-25.499c0-1.782,1.444-3.225,3.225-3.225
			s3.225,1.442,3.225,3.225c0,10.502,8.545,19.049,19.049,19.049c1.781,0,3.225,1.442,3.225,3.225S232.505,266.213,230.724,266.213z
			"/>
	</g>
</g>
<g>
	<g>
		<path class="st5" d="M230.724,266.213c-1.781,0-3.225-1.442-3.225-3.225s1.444-3.225,3.225-3.225
			c10.504,0,19.049-8.547,19.049-19.049c0-1.782,1.444-3.225,3.225-3.225s3.225,1.442,3.225,3.225
			C256.223,254.775,244.784,266.213,230.724,266.213z"/>
	</g>
</g>
<g>
	<g>
		<path class="st2" d="M500.546,177.524c-1.781,0-3.225-1.442-3.225-3.225v-41.572c0-1.782,1.444-3.225,3.225-3.225
			c1.781,0,3.225,1.442,3.225,3.225v41.572C503.771,176.082,502.327,177.524,500.546,177.524z"/>
	</g>
</g>
<g>
	<g>
		<path class="st4" d="M460.578,177.524c-1.781,0-3.225-1.442-3.225-3.225v-41.575c0-1.782,1.444-3.225,3.225-3.225
			c1.781,0,3.225,1.442,3.225,3.225v41.575C463.803,176.082,462.359,177.524,460.578,177.524z"/>
	</g>
</g>
<g>
	<g>
		<path class="st4" d="M670.579,135.949h-37.264c-1.781,0-3.225-1.442-3.225-3.225s1.444-3.225,3.225-3.225h37.264
			c1.781,0,3.225,1.442,3.225,3.225S672.359,135.949,670.579,135.949z"/>
	</g>
</g>
<g>
	<g>
		<path class="st5" d="M670.576,156.507h-37.264c-1.781,0-3.225-1.442-3.225-3.225s1.444-3.225,3.225-3.225h37.264
			c1.781,0,3.225,1.442,3.225,3.225S672.357,156.507,670.576,156.507z"/>
	</g>
</g>
<g>
	<g>
		<path class="st2" d="M670.576,177.064h-37.264c-1.781,0-3.225-1.442-3.225-3.225s1.444-3.225,3.225-3.225h37.264
			c1.781,0,3.225,1.442,3.225,3.225S672.357,177.064,670.576,177.064z"/>
	</g>
</g>
<g>
	<g>
		<path class="st2" d="M335.523,264.497c-1.781,0-3.225-1.442-3.225-3.225v-41.971c0-1.782,1.444-3.225,3.225-3.225
			c1.781,0,3.225,1.442,3.225,3.225v41.971C338.747,263.054,337.303,264.497,335.523,264.497z"/>
	</g>
</g>
<g>
	<g>
		<path class="st2" d="M252.015,177.524c-1.781,0-3.225-1.442-3.225-3.225v-41.572c0-1.782,1.444-3.225,3.225-3.225
			c1.781,0,3.225,1.442,3.225,3.225v41.572C255.24,176.082,253.796,177.524,252.015,177.524z"/>
	</g>
</g>
<g>
	<g>
		<path class="st4" d="M212.047,177.524c-1.781,0-3.225-1.442-3.225-3.225v-41.575c0-1.782,1.444-3.225,3.225-3.225
			s3.225,1.442,3.225,3.225v41.575C215.271,176.082,213.828,177.524,212.047,177.524z"/>
	</g>
</g>
<g>
	<g>
		<path class="st4" d="M294.943,263.64c-1.781,0-3.225-1.442-3.225-3.225v-41.114c0-1.782,1.444-3.225,3.225-3.225
			s3.225,1.442,3.225,3.225v41.114C298.168,262.198,296.724,263.64,294.943,263.64z"/>
	</g>
</g>
<g>
	<g>
		<path class="st2" d="M335.523,156.507c-1.781,0-3.225-1.442-3.225-3.225v-20.558c0-1.782,1.444-3.225,3.225-3.225
			c1.781,0,3.225,1.442,3.225,3.225v20.558C338.747,155.064,337.303,156.507,335.523,156.507z"/>
	</g>
</g>
<g>
	<g>
		<path class="st3" d="M294.943,177.064c-1.781,0-3.225-1.442-3.225-3.225v-20.558c0-1.782,1.444-3.225,3.225-3.225
			s3.225,1.442,3.225,3.225v20.558C298.168,175.622,296.724,177.064,294.943,177.064z"/>
	</g>
</g>
<g>
	<g>
		<path class="st4" d="M411.92,166.787h-27.849c-1.781,0-3.225-1.442-3.225-3.225s1.444-3.225,3.225-3.225h27.849
			c1.781,0,3.225,1.442,3.225,3.225S413.701,166.787,411.92,166.787z"/>
	</g>
</g>
<g>
	<g>
		<path class="st3" d="M379.232,177.066c-0.447,0-0.899-0.091-1.332-0.29c-1.622-0.737-2.338-2.648-1.603-4.27l18.678-41.115
			c0.737-1.622,2.65-2.343,4.27-1.6c1.622,0.737,2.338,2.648,1.603,4.27l-18.678,41.115
			C381.63,176.363,380.457,177.066,379.232,177.066z"/>
	</g>
</g>
<g>
	<g>
		<path class="st2" d="M416.591,177.066c0.447,0,0.899-0.091,1.332-0.29c1.622-0.737,2.338-2.648,1.603-4.27l-18.678-41.115
			c-0.737-1.622-2.65-2.343-4.27-1.6c-1.622,0.737-2.338,2.648-1.603,4.27l18.678,41.115
			C414.193,176.363,415.366,177.066,416.591,177.066z"/>
	</g>
</g>
</svg>
