<?xml version="1.0" encoding="utf-8"?>
<!-- Generator: Adobe Illustrator 17.0.0, SVG Export Plug-In . SVG Version: 6.00 Build 0)  -->
<!DOCTYPE svg PUBLIC "-//W3C//DTD SVG 1.1//EN" "http://www.w3.org/Graphics/SVG/1.1/DTD/svg11.dtd">
<svg version="1.1" id="Layer_1" xmlns="http://www.w3.org/2000/svg" xmlns:xlink="http://www.w3.org/1999/xlink" x="0px" y="0px"
	 width="800px" height="482.155px" viewBox="0 0 800 482.155" style="enable-background:new 0 0 800 482.155;" xml:space="preserve"
	>
<style type="text/css">
	.st0{fill:#212125;}
	.st1{fill:#ACACB0;}
	.st2{fill:#8DB32A;}
	.st3{fill:#5A7BBE;}
	.st4{fill:#C33556;}
	.st5{fill:#DEA700;}
	.st6{fill:#FFFFFF;}
	.st7{fill:#8C8C8C;}
	.st8{fill:#A1A1A4;}
	.st9{fill:#FEFEFE;}
	.st10{fill:#F3F3F5;}
</style>
<g>
	<g>
		<path class="st6" d="M128.052,295.292c-0.051-1.117,1.776-1.117,1.751,0v16.646h10.354c1.116-0.051,1.116,1.776,0,1.726h-11.241
			c-0.482,0-0.863-0.381-0.863-0.862V295.292z"/>
		<path class="st6" d="M156.605,311.177c-1.929-1.954-2.893-4.289-2.893-7.029s0.964-5.075,2.893-7.029
			c1.954-1.953,4.288-2.918,7.055-2.918c2.74,0,5.074,0.965,7.028,2.918c1.954,1.954,2.918,4.289,2.918,7.029
			s-0.964,5.075-2.918,7.029s-4.288,2.918-7.028,2.918C160.893,314.095,158.559,313.131,156.605,311.177z M171.856,304.148
			c0-2.258-0.813-4.187-2.411-5.785s-3.527-2.411-5.785-2.411c-2.259,0-4.213,0.813-5.812,2.411s-2.41,3.527-2.41,5.785
			c0,2.259,0.812,4.213,2.41,5.812s3.553,2.385,5.812,2.385c2.258,0,4.187-0.786,5.785-2.385S171.856,306.406,171.856,304.148z"/>
		<path class="st6" d="M203.428,313.004c0,0.481-0.405,0.862-0.888,0.862c-0.305,0-0.533-0.127-0.711-0.381l-11.368-15.605v15.124
			c0.025,1.116-1.802,1.116-1.751,0v-17.712c0-0.482,0.381-0.863,0.863-0.863c0.305,0,0.532,0.102,0.71,0.33l11.394,15.656v-15.123
			c-0.051-1.117,1.776-1.117,1.751,0V313.004z"/>
		<path class="st6" d="M219.167,295.494c0-0.481,0.381-0.862,0.862-0.862h5.634c2.613,0,4.872,0.938,6.725,2.791
			s2.791,4.111,2.791,6.725c0,2.614-0.938,4.872-2.791,6.725s-4.111,2.791-6.725,2.791h-2.36c-1.116,0.051-1.116-1.776,0-1.726h2.36
			c2.156,0,3.983-0.761,5.506-2.283s2.284-3.35,2.284-5.507s-0.762-3.983-2.284-5.506c-1.497-1.523-3.35-2.284-5.506-2.284h-4.745
			v16.646c0.051,1.116-1.776,1.116-1.751,0V295.494z"/>
		<path class="st6" d="M252.541,311.177c-1.928-1.954-2.893-4.289-2.893-7.029s0.965-5.075,2.893-7.029
			c1.954-1.953,4.289-2.918,7.055-2.918c2.74,0,5.075,0.965,7.029,2.918c1.954,1.954,2.918,4.289,2.918,7.029
			s-0.964,5.075-2.918,7.029s-4.289,2.918-7.029,2.918C256.83,314.095,254.495,313.131,252.541,311.177z M267.792,304.148
			c0-2.258-0.812-4.187-2.41-5.785s-3.527-2.411-5.786-2.411s-4.212,0.813-5.811,2.411s-2.411,3.527-2.411,5.785
			c0,2.259,0.813,4.213,2.411,5.812s3.552,2.385,5.811,2.385s4.188-0.786,5.786-2.385S267.792,306.406,267.792,304.148z"/>
		<path class="st6" d="M299.365,313.004c0,0.481-0.406,0.862-0.889,0.862c-0.305,0-0.532-0.127-0.71-0.381l-11.368-15.605v15.124
			c0.025,1.116-1.802,1.116-1.751,0v-17.712c0-0.482,0.381-0.863,0.862-0.863c0.305,0,0.533,0.102,0.711,0.33l11.394,15.656v-15.123
			c-0.051-1.117,1.776-1.117,1.751,0V313.004z"/>
		<path class="st6" d="M128.332,352.141l8.755-8.069c1.142-0.938,1.726-2.157,1.726-3.629c0-1.294-0.457-2.385-1.396-3.223
			c-0.939-0.862-2.056-1.294-3.375-1.294c-1.295,0-2.411,0.457-3.35,1.396c-0.914,0.939-1.37,2.056-1.396,3.375
			c0.025,1.117-1.802,1.117-1.751,0c0-1.802,0.634-3.35,1.902-4.593c1.27-1.269,2.792-1.903,4.594-1.903s3.35,0.609,4.593,1.802
			s1.878,2.664,1.878,4.44c0,2.03-0.762,3.68-2.31,4.974l-7.004,6.521h7.867c1.116-0.051,1.116,1.776,0,1.726H128.89
			c-0.482,0-0.863-0.381-0.863-0.862C128.027,352.522,128.128,352.318,128.332,352.141z"/>
		<path class="st6" d="M168.075,347.827c0,1.726-0.609,3.197-1.827,4.44c-1.218,1.218-2.689,1.827-4.415,1.827
			c-1.751,0-3.223-0.609-4.467-1.827c-1.218-1.243-1.827-2.715-1.827-4.44v-7.334c0-1.751,0.609-3.223,1.827-4.44
			c1.244-1.243,2.716-1.853,4.467-1.853c1.726,0,3.197,0.609,4.415,1.853c1.218,1.218,1.827,2.689,1.827,4.44V347.827z
			 M166.375,340.493c0-1.269-0.457-2.334-1.345-3.223c-0.889-0.888-1.954-1.319-3.197-1.319c-1.244,0-2.335,0.432-3.223,1.319
			c-0.889,0.889-1.32,1.954-1.32,3.223v7.334c0,1.243,0.432,2.309,1.32,3.197c0.888,0.888,1.979,1.319,3.223,1.319
			c1.243,0,2.309-0.432,3.197-1.319c0.888-0.889,1.345-1.954,1.345-3.197V340.493z"/>
		<path class="st6" d="M186.578,336.891l-2.816,1.624c-0.127,0.076-0.279,0.127-0.457,0.127c-0.482,0-0.862-0.355-0.862-0.838
			c0-0.381,0.177-0.635,0.507-0.812l3.984-2.386c0.178-0.127,0.355-0.178,0.532-0.178c0.482,0,0.863,0.381,0.863,0.863v17.712
			c0.025,1.116-1.802,1.116-1.751,0V336.891z"/>
		<path class="st6" d="M214.723,343.158c1.192,1.294,1.802,2.791,1.802,4.491c0,1.776-0.635,3.299-1.903,4.567
			c-1.243,1.243-2.766,1.878-4.567,1.878s-3.324-0.635-4.594-1.878c-1.269-1.269-1.902-2.791-1.902-4.567
			c0-1.294,0.38-2.537,1.142-3.68l6.09-9.16c0.178-0.254,0.406-0.381,0.711-0.381c0.481,0,0.862,0.381,0.862,0.863
			c0,0.177-0.051,0.329-0.152,0.507l-5.988,9.034c-0.609,0.837-0.913,1.776-0.913,2.816c0,1.294,0.456,2.41,1.396,3.35
			c0.938,0.913,2.055,1.37,3.35,1.37c1.294,0,2.41-0.457,3.35-1.37c0.938-0.939,1.421-2.056,1.421-3.35
			c0-1.243-0.406-2.335-1.244-3.223c-0.837-0.889-1.852-1.396-3.07-1.522c-1.116,0.051-1.116-1.776,0-1.7
			C212.109,341.204,213.53,341.864,214.723,343.158z"/>
	</g>
	<g>
		<g>
			<path class="st7" d="M379.854,243.344c-1.781,0-3.225-1.442-3.225-3.225v-20.558c0-1.782,1.444-3.225,3.225-3.225
				c1.781,0,3.225,1.442,3.225,3.225v20.558C383.079,241.902,381.635,243.344,379.854,243.344z"/>
		</g>
		<g>
			<path class="st7" d="M416.592,177.327c0.447,0,0.899-0.091,1.332-0.29c1.622-0.737,2.338-2.648,1.603-4.27l-18.678-41.115
				c-0.737-1.622-2.65-2.343-4.27-1.6c-1.622,0.737-2.338,2.648-1.603,4.27l18.678,41.115
				C414.194,176.624,415.367,177.327,416.592,177.327z"/>
		</g>
		<g>
			<path class="st7" d="M129.756,177.325c-1.781,0-3.225-1.442-3.225-3.225v-41.115c0-1.782,1.444-3.225,3.225-3.225
				c1.781,0,3.225,1.442,3.225,3.225V174.1C132.981,175.883,131.537,177.325,129.756,177.325z"/>
		</g>
		<g>
			<path class="st7" d="M335.524,156.767c-1.781,0-3.225-1.442-3.225-3.225v-20.558c0-1.782,1.444-3.225,3.225-3.225
				c1.781,0,3.225,1.442,3.225,3.225v20.558C338.749,155.325,337.305,156.767,335.524,156.767z"/>
		</g>
		<g>
			<path class="st7" d="M294.944,177.325c-1.781,0-3.225-1.442-3.225-3.225v-20.558c0-1.782,1.444-3.225,3.225-3.225
				c1.781,0,3.225,1.442,3.225,3.225V174.1C298.169,175.883,296.725,177.325,294.944,177.325z"/>
		</g>
		<g>
			<path class="st7" d="M411.921,167.048h-27.849c-1.781,0-3.225-1.442-3.225-3.225s1.444-3.225,3.225-3.225h27.849
				c1.781,0,3.225,1.442,3.225,3.225S413.702,167.048,411.921,167.048z"/>
		</g>
		<g>
			<path class="st8" d="M335.585,264.756c-0.879,0-1.753-0.356-2.389-1.055L209.661,135.155c-1.197-1.319-1.099-3.36,0.219-4.557
				c1.321-1.194,3.36-1.096,4.555,0.217l123.536,128.546c1.197,1.319,1.099,3.36-0.219,4.557
				C337.135,264.479,336.359,264.756,335.585,264.756z"/>
		</g>
		<g>
			<path class="st7" d="M500.549,177.785c-0.879,0-1.753-0.356-2.389-1.055l-39.969-41.575c-1.197-1.319-1.099-3.36,0.219-4.557
				c1.321-1.194,3.36-1.096,4.555,0.217l39.969,41.575c1.197,1.319,1.099,3.36-0.219,4.557
				C502.099,177.508,501.323,177.785,500.549,177.785z"/>
		</g>
		<g>
			<path class="st7" d="M633.313,177.325c-1.781,0-3.225-1.442-3.225-3.225v-41.115c0-1.782,1.444-3.225,3.225-3.225
				s3.225,1.442,3.225,3.225V174.1C636.538,175.883,635.094,177.325,633.313,177.325z"/>
		</g>
	</g>
	<g>
		<g>
			<path class="st9" d="M379.854,263.899c-1.781,0-3.225-1.442-3.225-3.225v-20.558c0-1.782,1.444-3.225,3.225-3.225
				c1.781,0,3.225,1.442,3.225,3.225v20.558C383.079,262.457,381.635,263.899,379.854,263.899z"/>
		</g>
		<g>
			<path class="st9" d="M167.021,136.21h-37.264c-1.781,0-3.225-1.442-3.225-3.225s1.444-3.225,3.225-3.225h37.264
				c1.781,0,3.225,1.442,3.225,3.225S168.801,136.21,167.021,136.21z"/>
		</g>
		<g>
			<path class="st9" d="M167.021,156.767h-37.264c-1.781,0-3.225-1.442-3.225-3.225s1.444-3.225,3.225-3.225h37.264
				c1.781,0,3.225,1.442,3.225,3.225S168.801,156.767,167.021,156.767z"/>
		</g>
		<g>
			<path class="st9" d="M167.021,177.325h-37.264c-1.781,0-3.225-1.442-3.225-3.225s1.444-3.225,3.225-3.225h37.264
				c1.781,0,3.225,1.442,3.225,3.225S168.801,177.325,167.021,177.325z"/>
		</g>
		<g>
			<path class="st9" d="M417.21,222.784h-37.357c-1.781,0-3.225-1.442-3.225-3.225s1.444-3.225,3.225-3.225h37.357
				c1.781,0,3.225,1.442,3.225,3.225S418.991,222.784,417.21,222.784z"/>
		</g>
		<g>
			<path class="st9" d="M417.21,243.342h-37.357c-1.781,0-3.225-1.442-3.225-3.225s1.444-3.225,3.225-3.225h37.357
				c1.781,0,3.225,1.442,3.225,3.225S418.991,243.342,417.21,243.342z"/>
		</g>
		<g>
			<path class="st9" d="M379.233,177.327c-0.447,0-0.899-0.091-1.332-0.29c-1.622-0.737-2.338-2.648-1.603-4.27l18.677-41.115
				c0.737-1.622,2.65-2.343,4.27-1.6c1.622,0.737,2.338,2.648,1.603,4.27l-18.677,41.115
				C381.631,176.624,380.458,177.327,379.233,177.327z"/>
		</g>
		<g>
			<path class="st9" d="M416.593,177.327c-1.225,0-2.398-0.702-2.938-1.889l-4.67-10.279c-0.735-1.622-0.019-3.533,1.603-4.27
				c1.614-0.746,3.532-0.022,4.27,1.6l4.67,10.279c0.735,1.622,0.019,3.533-1.603,4.27
				C417.492,177.235,417.04,177.327,416.593,177.327z"/>
		</g>
		<g>
			<path class="st9" d="M584.125,141.019c-0.825,0-1.65-0.315-2.28-0.945c-7.429-7.426-19.512-7.426-26.941,0
				c-1.26,1.26-3.3,1.26-4.56,0c-1.26-1.26-1.26-3.3,0-4.56c9.942-9.939,26.119-9.939,36.061,0c1.26,1.26,1.26,3.3,0,4.56
				C585.775,140.704,584.95,141.019,584.125,141.019z"/>
		</g>
		<g>
			<path class="st9" d="M552.625,172.516c-0.825,0-1.65-0.315-2.28-0.945c-9.942-9.942-9.942-26.116,0-36.058
				c1.26-1.26,3.3-1.26,4.56,0c1.26,1.26,1.26,3.3,0,4.56c-7.426,7.426-7.426,19.512,0,26.938c1.26,1.26,1.26,3.3,0,4.56
				C554.275,172.201,553.45,172.516,552.625,172.516z"/>
		</g>
		<g>
			<path class="st9" d="M568.375,179.041c-6.81,0-13.214-2.652-18.03-7.47c-1.26-1.26-1.26-3.3,0-4.56c1.26-1.26,3.3-1.26,4.56,0
				c3.599,3.599,8.383,5.58,13.47,5.58s9.871-1.981,13.47-5.58c1.26-1.26,3.3-1.26,4.56,0c1.26,1.26,1.26,3.3,0,4.56
				C581.589,176.39,575.185,179.041,568.375,179.041z"/>
		</g>
		<g>
			<path class="st9" d="M167.447,228.448c-0.825,0-1.65-0.315-2.28-0.945c-7.43-7.429-19.512-7.423-26.939,0
				c-1.26,1.26-3.3,1.26-4.56,0c-1.26-1.26-1.26-3.3,0-4.56c9.942-9.948,26.117-9.948,36.059,0c1.26,1.26,1.26,3.3,0,4.56
				C169.097,228.133,168.272,228.448,167.447,228.448z"/>
		</g>
		<g>
			<path class="st9" d="M135.948,259.949c-0.825,0-1.65-0.315-2.28-0.945c-4.817-4.815-7.47-11.217-7.47-18.029
				c0-6.812,2.653-13.214,7.47-18.032c1.26-1.26,3.3-1.26,4.56,0c1.26,1.26,1.26,3.3,0,4.56c-3.598,3.599-5.58,8.383-5.58,13.472
				c0,5.089,1.982,9.869,5.58,13.469c1.26,1.26,1.26,3.3,0,4.56C137.598,259.634,136.773,259.949,135.948,259.949z"/>
		</g>
		<g>
			<path class="st9" d="M151.696,266.461c-6.528,0-13.058-2.485-18.029-7.457c-1.26-1.26-1.26-3.3,0-4.56c1.26-1.26,3.3-1.26,4.56,0
				c7.429,7.429,19.51,7.429,26.939,0c1.26-1.26,3.3-1.26,4.56,0c1.26,1.26,1.26,3.3,0,4.56
				C164.756,263.977,158.226,266.461,151.696,266.461z"/>
		</g>
		<g>
			<path class="st9" d="M252.999,244.2c-1.781,0-3.225-1.442-3.225-3.225c0-10.502-8.545-19.049-19.049-19.049
				c-1.781,0-3.225-1.442-3.225-3.225s1.444-3.225,3.225-3.225c14.059,0,25.499,11.438,25.499,25.499
				C256.224,242.758,254.78,244.2,252.999,244.2z"/>
		</g>
		<g>
			<path class="st9" d="M208.452,244.2c-1.781,0-3.225-1.442-3.225-3.225c0-14.061,11.439-25.499,25.499-25.499
				c1.781,0,3.225,1.442,3.225,3.225s-1.444,3.225-3.225,3.225c-10.504,0-19.049,8.547-19.049,19.049
				C211.676,242.758,210.232,244.2,208.452,244.2z"/>
		</g>
		<g>
			<path class="st9" d="M230.725,266.474c-14.059,0-25.499-11.438-25.499-25.499c0-1.782,1.444-3.225,3.225-3.225
				c1.781,0,3.225,1.442,3.225,3.225c0,10.502,8.545,19.049,19.049,19.049c1.781,0,3.225,1.442,3.225,3.225
				S232.506,266.474,230.725,266.474z"/>
		</g>
		<g>
			<path class="st9" d="M230.725,266.474c-1.781,0-3.225-1.442-3.225-3.225s1.444-3.225,3.225-3.225
				c10.504,0,19.049-8.547,19.049-19.049c0-1.782,1.444-3.225,3.225-3.225c1.781,0,3.225,1.442,3.225,3.225
				C256.224,255.036,244.785,266.474,230.725,266.474z"/>
		</g>
		<g>
			<path class="st9" d="M335.524,156.767h-40.58c-1.781,0-3.225-1.442-3.225-3.225s1.444-3.225,3.225-3.225h40.58
				c1.781,0,3.225,1.442,3.225,3.225S337.305,156.767,335.524,156.767z"/>
		</g>
		<g>
			<path class="st9" d="M335.524,177.325c-1.781,0-3.225-1.442-3.225-3.225v-20.558c0-1.782,1.444-3.225,3.225-3.225
				c1.781,0,3.225,1.442,3.225,3.225V174.1C338.749,175.883,337.305,177.325,335.524,177.325z"/>
		</g>
		<g>
			<path class="st9" d="M294.944,156.767c-1.781,0-3.225-1.442-3.225-3.225v-20.558c0-1.782,1.444-3.225,3.225-3.225
				c1.781,0,3.225,1.442,3.225,3.225v20.558C298.169,155.325,296.725,156.767,294.944,156.767z"/>
		</g>
		<g>
			<path class="st9" d="M500.547,177.785c-1.781,0-3.225-1.442-3.225-3.225v-41.572c0-1.782,1.444-3.225,3.225-3.225
				c1.781,0,3.225,1.442,3.225,3.225v41.572C503.772,176.342,502.328,177.785,500.547,177.785z"/>
		</g>
		<g>
			<path class="st9" d="M460.579,177.785c-1.781,0-3.225-1.442-3.225-3.225v-41.575c0-1.782,1.444-3.225,3.225-3.225
				c1.781,0,3.225,1.442,3.225,3.225v41.575C463.804,176.342,462.36,177.785,460.579,177.785z"/>
		</g>
		<g>
			<path class="st9" d="M670.577,136.21h-37.264c-1.781,0-3.225-1.442-3.225-3.225s1.444-3.225,3.225-3.225h37.264
				c1.781,0,3.225,1.442,3.225,3.225S672.358,136.21,670.577,136.21z"/>
		</g>
		<g>
			<path class="st9" d="M670.577,156.767h-37.264c-1.781,0-3.225-1.442-3.225-3.225s1.444-3.225,3.225-3.225h37.264
				c1.781,0,3.225,1.442,3.225,3.225S672.358,156.767,670.577,156.767z"/>
		</g>
		<g>
			<path class="st9" d="M670.577,177.325h-37.264c-1.781,0-3.225-1.442-3.225-3.225s1.444-3.225,3.225-3.225h37.264
				c1.781,0,3.225,1.442,3.225,3.225S672.358,177.325,670.577,177.325z"/>
		</g>
		<g>
			<path class="st9" d="M335.524,264.758c-1.781,0-3.225-1.442-3.225-3.225v-41.971c0-1.782,1.444-3.225,3.225-3.225
				c1.781,0,3.225,1.442,3.225,3.225v41.971C338.749,263.315,337.305,264.758,335.524,264.758z"/>
		</g>
		<g>
			<path class="st9" d="M252.016,177.785c-1.781,0-3.225-1.442-3.225-3.225v-41.572c0-1.782,1.444-3.225,3.225-3.225
				c1.781,0,3.225,1.442,3.225,3.225v41.572C255.241,176.342,253.797,177.785,252.016,177.785z"/>
		</g>
		<g>
			<path class="st9" d="M212.048,177.785c-1.781,0-3.225-1.442-3.225-3.225v-41.575c0-1.782,1.444-3.225,3.225-3.225
				s3.225,1.442,3.225,3.225v41.575C215.273,176.342,213.829,177.785,212.048,177.785z"/>
		</g>
		<g>
			<path class="st9" d="M294.944,263.901c-1.781,0-3.225-1.442-3.225-3.225v-41.114c0-1.782,1.444-3.225,3.225-3.225
				c1.781,0,3.225,1.442,3.225,3.225v41.114C298.169,262.459,296.725,263.901,294.944,263.901z"/>
		</g>
		<g>
			<path class="st9" d="M411.836,166.987h-9.168c-1.748,0-3.166-1.416-3.166-3.166s1.418-3.166,3.166-3.166h9.168
				c1.748,0,3.166,1.416,3.166,3.166S413.584,166.987,411.836,166.987z"/>
		</g>
	</g>
</g>
</svg>
