<?xml version="1.0" encoding="utf-8"?>
<!-- Generator: Adobe Illustrator 17.0.0, SVG Export Plug-In . SVG Version: 6.00 Build 0)  -->
<!DOCTYPE svg PUBLIC "-//W3C//DTD SVG 1.1//EN" "http://www.w3.org/Graphics/SVG/1.1/DTD/svg11.dtd">
<svg version="1.1" id="Layer_1" xmlns="http://www.w3.org/2000/svg" xmlns:xlink="http://www.w3.org/1999/xlink" x="0px" y="0px"
	 width="800px" height="482.155px" viewBox="0 0 800 482.155" style="enable-background:new 0 0 800 482.155;" xml:space="preserve"
	>
<style type="text/css">
	.st0{fill:#212125;}
	.st1{fill:#ACACB0;}
	.st2{fill:#8DB32A;}
	.st3{fill:#5A7BBE;}
	.st4{fill:#C33556;}
	.st5{fill:#DEA700;}
	.st6{fill:#FFFFFF;}
	.st7{fill:#8C8C8C;}
	.st8{fill:#A1A1A4;}
	.st9{fill:#FEFEFE;}
	.st10{fill:#F3F3F5;}
</style>
<g>
	<g>
		<path class="st0" d="M128.551,296.053c-0.051-1.116,1.776-1.116,1.751,0v16.646h10.353c1.117-0.051,1.117,1.776,0,1.726h-11.241
			c-0.482,0-0.863-0.381-0.863-0.863V296.053z"/>
		<path class="st0" d="M157.103,311.938c-1.928-1.954-2.893-4.288-2.893-7.028c0-2.741,0.964-5.075,2.893-7.029
			c1.954-1.954,4.289-2.918,7.055-2.918c2.74,0,5.075,0.964,7.029,2.918s2.918,4.288,2.918,7.029c0,2.74-0.964,5.074-2.918,7.028
			s-4.289,2.918-7.029,2.918C161.391,314.855,159.057,313.892,157.103,311.938z M172.354,304.909c0-2.259-0.812-4.188-2.411-5.786
			c-1.599-1.599-3.527-2.41-5.786-2.41c-2.259,0-4.212,0.812-5.811,2.41s-2.411,3.527-2.411,5.786c0,2.258,0.812,4.212,2.411,5.811
			s3.552,2.386,5.811,2.386c2.258,0,4.187-0.787,5.786-2.386C171.542,309.121,172.354,307.167,172.354,304.909z"/>
		<path class="st0" d="M203.927,313.765c0,0.482-0.406,0.863-0.888,0.863c-0.305,0-0.533-0.127-0.71-0.381l-11.368-15.606v15.124
			c0.025,1.116-1.802,1.116-1.751,0v-17.712c0-0.482,0.381-0.862,0.863-0.862c0.305,0,0.533,0.102,0.71,0.329l11.394,15.657v-15.124
			c-0.051-1.116,1.776-1.116,1.751,0V313.765z"/>
		<path class="st0" d="M219.664,296.256c0-0.482,0.381-0.863,0.863-0.863h5.633c2.614,0,4.872,0.939,6.725,2.792
			s2.791,4.11,2.791,6.725c0,2.613-0.938,4.872-2.791,6.724c-1.853,1.853-4.111,2.792-6.725,2.792h-2.36
			c-1.117,0.051-1.117-1.776,0-1.726h2.36c2.157,0,3.984-0.762,5.506-2.284s2.284-3.35,2.284-5.506c0-2.157-0.762-3.984-2.284-5.507
			c-1.497-1.522-3.35-2.284-5.506-2.284h-4.745v16.646c0.051,1.116-1.776,1.116-1.751,0V296.256z"/>
		<path class="st0" d="M253.039,311.938c-1.928-1.954-2.893-4.288-2.893-7.028c0-2.741,0.964-5.075,2.893-7.029
			c1.954-1.954,4.289-2.918,7.055-2.918c2.74,0,5.075,0.964,7.029,2.918s2.918,4.288,2.918,7.029c0,2.74-0.964,5.074-2.918,7.028
			s-4.289,2.918-7.029,2.918C257.327,314.855,254.993,313.892,253.039,311.938z M268.29,304.909c0-2.259-0.812-4.188-2.411-5.786
			s-3.527-2.41-5.786-2.41c-2.259,0-4.212,0.812-5.811,2.41s-2.411,3.527-2.411,5.786c0,2.258,0.812,4.212,2.411,5.811
			s3.552,2.386,5.811,2.386c2.258,0,4.187-0.787,5.786-2.386S268.29,307.167,268.29,304.909z"/>
		<path class="st0" d="M299.863,313.765c0,0.482-0.406,0.863-0.888,0.863c-0.305,0-0.533-0.127-0.71-0.381l-11.368-15.606v15.124
			c0.025,1.116-1.802,1.116-1.751,0v-17.712c0-0.482,0.381-0.862,0.863-0.862c0.305,0,0.533,0.102,0.71,0.329l11.394,15.657v-15.124
			c-0.051-1.116,1.776-1.116,1.751,0V313.765z"/>
		<path class="st0" d="M128.83,352.902l8.754-8.069c1.142-0.939,1.726-2.157,1.726-3.629c0-1.294-0.457-2.386-1.396-3.223
			c-0.939-0.863-2.056-1.294-3.375-1.294c-1.294,0-2.411,0.456-3.35,1.396c-0.914,0.938-1.37,2.056-1.396,3.375
			c0.025,1.116-1.802,1.116-1.751,0c0-1.802,0.634-3.35,1.903-4.593c1.269-1.27,2.792-1.903,4.593-1.903s3.35,0.608,4.593,1.802
			c1.244,1.192,1.878,2.664,1.878,4.44c0,2.03-0.761,3.68-2.309,4.974l-7.004,6.521h7.867c1.116-0.051,1.116,1.776,0,1.726h-10.176
			c-0.482,0-0.863-0.381-0.863-0.863C128.525,353.282,128.627,353.08,128.83,352.902z"/>
		<path class="st0" d="M168.573,348.588c0,1.726-0.609,3.197-1.827,4.441c-1.218,1.218-2.689,1.826-4.415,1.826
			c-1.751,0-3.223-0.608-4.466-1.826c-1.218-1.244-1.827-2.716-1.827-4.441v-7.333c0-1.751,0.609-3.223,1.827-4.44
			c1.244-1.244,2.715-1.853,4.466-1.853c1.726,0,3.197,0.608,4.415,1.853c1.218,1.218,1.827,2.689,1.827,4.44V348.588z
			 M166.872,341.255c0-1.269-0.457-2.335-1.345-3.223c-0.888-0.889-1.954-1.319-3.197-1.319c-1.244,0-2.335,0.431-3.223,1.319
			c-0.888,0.888-1.32,1.954-1.32,3.223v7.333c0,1.244,0.432,2.31,1.32,3.197c0.888,0.889,1.979,1.32,3.223,1.32
			c1.243,0,2.309-0.432,3.197-1.32c0.888-0.888,1.345-1.953,1.345-3.197V341.255z"/>
		<path class="st0" d="M187.076,337.651l-2.817,1.624c-0.127,0.076-0.279,0.127-0.457,0.127c-0.482,0-0.863-0.355-0.863-0.837
			c0-0.381,0.177-0.635,0.507-0.813l3.984-2.386c0.178-0.126,0.355-0.177,0.533-0.177c0.482,0,0.863,0.38,0.863,0.862v17.712
			c0.025,1.116-1.801,1.116-1.75,0V337.651z"/>
		<path class="st0" d="M215.221,343.919c1.193,1.294,1.802,2.791,1.802,4.491c0,1.776-0.634,3.299-1.903,4.568
			c-1.243,1.243-2.766,1.877-4.567,1.877s-3.324-0.634-4.593-1.877c-1.269-1.27-1.903-2.792-1.903-4.568
			c0-1.294,0.38-2.537,1.142-3.679l6.09-9.161c0.178-0.253,0.406-0.38,0.71-0.38c0.482,0,0.863,0.38,0.863,0.862
			c0,0.178-0.051,0.33-0.152,0.508l-5.989,9.033c-0.609,0.838-0.913,1.776-0.913,2.816c0,1.295,0.457,2.411,1.396,3.35
			c0.939,0.914,2.055,1.371,3.35,1.371c1.294,0,2.411-0.457,3.35-1.371c0.938-0.938,1.421-2.055,1.421-3.35
			c0-1.243-0.406-2.334-1.244-3.223c-0.837-0.888-1.852-1.396-3.07-1.522c-1.116,0.051-1.116-1.776,0-1.7
			C212.607,341.965,214.028,342.625,215.221,343.919z"/>
	</g>
</g>
<g>
	<path class="st0" d="M167.02,157.007c2.054,0,3.725-1.671,3.725-3.725s-1.671-3.725-3.725-3.725h-33.54V136.45h33.542
		c2.054,0,3.725-1.671,3.725-3.726c0-2.054-1.671-3.725-3.725-3.725h-37.267c-2.054,0-3.725,1.671-3.725,3.725v41.115
		c0,2.054,1.671,3.725,3.725,3.725h37.265c2.054,0,3.725-1.671,3.725-3.725s-1.671-3.725-3.725-3.725h-33.54v-13.107H167.02z
		 M167.019,170.615c1.781,0,3.225,1.442,3.225,3.225c0,1.783-1.444,3.225-3.225,3.225h-37.264c-1.781,0-3.225-1.442-3.225-3.225
		v-41.115c0-1.783,1.444-3.225,3.225-3.225h0.001h0.001h37.264c1.781,0,3.225,1.442,3.225,3.225c0,1.782-1.444,3.225-3.225,3.225
		H132.98v14.108h34.04c1.781,0,3.225,1.442,3.225,3.225c0,1.782-1.444,3.225-3.225,3.225h-34.04v14.108H167.019z"/>
</g>
<g>
	<path class="st0" d="M417.209,236.132h-33.632v-13.108h33.632c2.054,0,3.725-1.671,3.725-3.725s-1.671-3.725-3.725-3.725h-37.356
		c-2.054,0-3.725,1.672-3.725,3.727v41.112c0,2.055,1.671,3.726,3.725,3.726s3.725-1.671,3.725-3.726v-16.832h33.632
		c2.054,0,3.725-1.671,3.725-3.725S419.263,236.132,417.209,236.132z M417.209,243.081h-34.132v17.333
		c0,1.782-1.444,3.225-3.225,3.225c-1.781,0-3.225-1.442-3.225-3.225v-20.555v-0.002v-20.555V219.3v-0.001
		c0-1.782,1.444-3.225,3.225-3.225h37.357c1.781,0,3.225,1.442,3.225,3.225c0,1.783-1.444,3.225-3.225,3.225h-34.132v14.108h34.132
		c1.781,0,3.225,1.442,3.225,3.225S418.99,243.081,417.209,243.081z"/>
</g>
<g>
	<g>
		<path class="st0" d="M388.911,160.338h18.001l-9-19.813L388.911,160.338z M389.688,159.837l8.224-18.104l8.225,18.104H389.688z"/>
	</g>
	<g>
		<path class="st0" d="M419.981,172.299l-18.678-41.116c-0.028-0.062-0.063-0.118-0.124-0.216c-0.053-0.1-0.107-0.197-0.17-0.292
			c-0.078-0.116-0.161-0.226-0.251-0.333c-0.063-0.075-0.127-0.148-0.201-0.226c-0.105-0.105-0.216-0.202-0.329-0.292
			c-0.071-0.057-0.143-0.114-0.219-0.166c-0.135-0.092-0.274-0.171-0.434-0.253c-0.041-0.026-0.083-0.052-0.208-0.099
			c-0.145-0.063-0.295-0.111-0.475-0.162c-0.082-0.024-0.164-0.048-0.25-0.065c-0.13-0.026-0.262-0.039-0.431-0.055
			c-0.101-0.01-0.201-0.02-0.302-0.02c-0.1,0-0.2,0.01-0.337,0.023c-0.133,0.012-0.265,0.024-0.397,0.051
			c-0.082,0.018-0.163,0.04-0.274,0.073c-0.152,0.043-0.303,0.092-0.428,0.146l-0.099,0.035c-0.046,0.02-0.088,0.045-0.143,0.079
			c-0.145,0.074-0.284,0.152-0.425,0.248c-0.072,0.051-0.143,0.105-0.215,0.163c-0.114,0.092-0.225,0.188-0.33,0.295
			c-0.071,0.072-0.136,0.146-0.199,0.223c-0.089,0.105-0.173,0.216-0.251,0.333c-0.062,0.094-0.115,0.189-0.197,0.335
			c-0.035,0.056-0.068,0.111-0.097,0.174L375.842,172.3c-0.848,1.869-0.018,4.082,1.851,4.932c0.487,0.222,1.005,0.334,1.54,0.334
			c1.458,0,2.79-0.856,3.393-2.183l3.679-8.096h23.216l3.679,8.096c0.602,1.326,1.934,2.183,3.393,2.183
			c0.535,0,1.054-0.112,1.539-0.334C419.999,176.382,420.829,174.17,419.981,172.299z M417.923,176.777
			c-0.433,0.198-0.885,0.29-1.332,0.29c-1.225,0-2.398-0.702-2.938-1.89l-3.811-8.389h-23.861l-3.811,8.389
			c-0.54,1.188-1.713,1.89-2.938,1.89c-0.447,0-0.899-0.091-1.332-0.29c-1.622-0.737-2.338-2.648-1.603-4.271l18.678-41.115
			c0.031-0.068,0.076-0.125,0.111-0.19c0.046-0.084,0.091-0.168,0.145-0.249c0.067-0.102,0.141-0.196,0.218-0.288
			c0.055-0.066,0.111-0.131,0.172-0.193c0.091-0.092,0.188-0.176,0.288-0.256c0.061-0.049,0.122-0.097,0.187-0.142
			c0.117-0.081,0.24-0.149,0.366-0.213c0.041-0.021,0.075-0.049,0.117-0.068c0.024-0.011,0.049-0.015,0.074-0.025
			c0.126-0.053,0.255-0.094,0.386-0.131c0.08-0.023,0.159-0.048,0.239-0.064c0.112-0.023,0.226-0.033,0.34-0.044
			c0.099-0.009,0.196-0.021,0.295-0.021c0.098,0,0.196,0.012,0.294,0.021c0.114,0.011,0.228,0.021,0.34,0.044
			c0.08,0.016,0.159,0.042,0.239,0.064c0.132,0.038,0.26,0.079,0.386,0.132c0.024,0.01,0.05,0.014,0.074,0.025
			c0.042,0.019,0.076,0.047,0.117,0.068c0.126,0.064,0.249,0.132,0.366,0.213c0.065,0.044,0.126,0.093,0.187,0.142
			c0.101,0.08,0.197,0.164,0.288,0.256c0.061,0.062,0.117,0.127,0.172,0.193c0.077,0.092,0.15,0.186,0.218,0.288
			c0.053,0.081,0.099,0.164,0.145,0.249c0.035,0.065,0.08,0.122,0.111,0.19l18.677,41.115
			C420.261,174.128,419.545,176.039,417.923,176.777z"/>
	</g>
</g>
<g>
	<path class="st0" d="M584.124,165.306c-0.995,0-1.93,0.388-2.634,1.092c-3.503,3.504-8.161,5.434-13.116,5.434
		s-9.613-1.93-13.117-5.434c-3.497-3.497-5.423-8.155-5.423-13.115c0-4.961,1.926-9.618,5.423-13.115
		c3.498-3.497,8.156-5.423,13.117-5.423c4.96,0,9.618,1.926,13.116,5.423c0.704,0.703,1.64,1.091,2.634,1.091
		s1.93-0.388,2.634-1.091c1.451-1.452,1.451-3.815,0-5.268c-4.903-4.901-11.432-7.601-18.384-7.601
		c-6.953,0-13.481,2.699-18.385,7.601c-10.136,10.136-10.136,26.628,0,36.765c4.91,4.911,11.439,7.616,18.385,7.616
		c6.944,0,13.474-2.705,18.384-7.616c1.451-1.452,1.451-3.814,0-5.267C586.054,165.694,585.119,165.306,584.124,165.306z
		 M586.404,171.311c-4.817,4.818-11.22,7.47-18.03,7.47c-6.81,0-13.214-2.652-18.03-7.47c-9.942-9.942-9.942-26.116,0-36.058
		c9.942-9.939,26.119-9.939,36.061,0c1.26,1.259,1.26,3.3,0,4.56c-0.63,0.63-1.455,0.945-2.28,0.945c-0.825,0-1.65-0.315-2.28-0.945
		c-7.429-7.425-19.512-7.425-26.941,0c-7.426,7.426-7.426,19.512,0,26.938c3.599,3.599,8.383,5.58,13.47,5.58
		s9.871-1.981,13.47-5.58c1.26-1.26,3.3-1.26,4.56,0S587.664,170.051,586.404,171.311z"/>
</g>
<g>
	<path class="st0" d="M167.445,252.739c-0.995,0-1.93,0.387-2.634,1.091c-3.498,3.499-8.156,5.426-13.115,5.426
		c-4.96,0-9.618-1.927-13.116-5.426c-3.505-3.505-5.435-8.162-5.435-13.115c0-4.954,1.93-9.612,5.435-13.118
		c3.499-3.497,8.157-5.423,13.117-5.423s9.617,1.926,13.114,5.423c0.704,0.703,1.64,1.091,2.634,1.091
		c0.995,0,1.931-0.388,2.634-1.091c1.452-1.452,1.452-3.814,0-5.267c-4.902-4.906-11.431-7.607-18.383-7.607
		s-13.48,2.701-18.384,7.607c-4.911,4.913-7.616,11.442-7.616,18.385c0,6.944,2.705,13.473,7.616,18.383
		c4.902,4.903,11.431,7.604,18.383,7.604c6.954,0,13.482-2.7,18.384-7.604c1.452-1.452,1.452-3.815,0-5.268
		C169.375,253.125,168.44,252.739,167.445,252.739z M169.725,258.743c-4.971,4.973-11.501,7.458-18.03,7.458
		c-6.528,0-13.058-2.485-18.029-7.458c-4.817-4.815-7.47-11.217-7.47-18.029c0-6.812,2.653-13.213,7.47-18.032
		c9.942-9.948,26.117-9.948,36.059,0c1.26,1.26,1.26,3.3,0,4.56c-0.63,0.63-1.455,0.945-2.28,0.945c-0.825,0-1.65-0.315-2.28-0.945
		c-7.43-7.429-19.512-7.422-26.939,0c-3.598,3.599-5.58,8.383-5.58,13.472c0,5.089,1.982,9.87,5.58,13.469
		c7.429,7.429,19.51,7.429,26.939,0c1.26-1.26,3.3-1.26,4.56,0C170.985,255.443,170.985,257.484,169.725,258.743z"/>
</g>
<g>
	<g>
		<path class="st0" d="M230.724,221.666c-10.504,0-19.049,8.547-19.049,19.049c0,10.502,8.545,19.049,19.049,19.049
			s19.049-8.547,19.049-19.049C249.773,230.213,241.228,221.666,230.724,221.666z M230.725,259.264
			c-10.229,0-18.55-8.321-18.55-18.55c0-10.228,8.321-18.549,18.55-18.549c10.228,0,18.549,8.321,18.549,18.549
			C249.273,250.943,240.952,259.264,230.725,259.264z"/>
	</g>
	<g>
		<path class="st0" d="M230.725,214.716c-14.336,0-25.999,11.663-25.999,25.998c0,14.336,11.663,25.999,25.999,25.999
			c14.335,0,25.998-11.663,25.998-25.999C256.723,226.379,245.06,214.716,230.725,214.716z M230.724,266.213
			c-14.059,0-25.499-11.437-25.499-25.499c0-14.061,11.439-25.499,25.499-25.499s25.499,11.438,25.499,25.499
			C256.223,254.776,244.783,266.213,230.724,266.213z"/>
	</g>
</g>
<g>
	<path class="st0" d="M500.546,129.002c-2.054,0-3.725,1.671-3.725,3.725v32.324l-33.555-34.896
		c-0.075-0.077-0.154-0.146-0.235-0.215l-0.324,0.38l0.217-0.473c-0.068-0.06-0.138-0.118-0.211-0.169
		c-0.084-0.059-0.174-0.109-0.265-0.159l-0.242,0.438l0.11-0.513c-0.074-0.042-0.147-0.083-0.224-0.117
		c-0.107-0.048-0.22-0.084-0.332-0.119l-0.148,0.478l0.028-0.517c-0.077-0.026-0.154-0.052-0.231-0.068
		c-0.111-0.025-0.227-0.04-0.342-0.053l-0.057,0.497l-0.067-0.512c-0.085-0.011-0.171-0.021-0.24-0.022l-0.087-0.011h-0.038
		c-0.078,0-0.152,0.009-0.227,0.02l-0.129,0.013c-0.088,0.007-0.177,0.015-0.265,0.029c-0.142,0.023-0.277,0.061-0.46,0.113
		c-0.08,0.023-0.16,0.046-0.24,0.077c-0.135,0.052-0.261,0.113-0.428,0.199c-0.075,0.039-0.15,0.078-0.228,0.125
		c-0.123,0.078-0.237,0.167-0.381,0.278c-0.052,0.035-0.103,0.071-0.204,0.175c-0.102,0.096-0.191,0.202-0.333,0.37
		c-0.053,0.061-0.105,0.123-0.152,0.189c-0.063,0.091-0.117,0.187-0.17,0.284l0.439,0.239l-0.49-0.148
		c-0.048,0.082-0.095,0.164-0.136,0.254c-0.041,0.094-0.073,0.191-0.104,0.29l0.477,0.151l-0.52-0.021
		c-0.029,0.089-0.059,0.178-0.077,0.261c-0.021,0.091-0.033,0.185-0.044,0.278l0.497,0.058l-0.51,0.051
		c-0.016,0.115-0.03,0.231-0.032,0.327l-0.009,0.075v41.611c0,2.055,1.671,3.726,3.725,3.726s3.725-1.671,3.725-3.726v-32.326
		l33.55,34.891c0.11,0.116,0.233,0.218,0.414,0.366c0.053,0.046,0.106,0.092,0.16,0.128c0.146,0.103,0.304,0.185,0.496,0.283
		c0.054,0.031,0.108,0.062,0.157,0.082c0.468,0.2,0.962,0.302,1.468,0.302c0.227,0,0.458-0.023,0.709-0.071
		c0.068-0.014,0.133-0.032,0.254-0.069c0.141-0.037,0.281-0.076,0.422-0.132c0.078-0.031,0.151-0.068,0.225-0.106l-0.231-0.443
		l0.332,0.392c0.101-0.051,0.2-0.103,0.295-0.163c0.081-0.052,0.156-0.11,0.231-0.17l-0.312-0.392l0.417,0.312
		c0.055-0.038,0.109-0.077,0.218-0.187c0.088-0.082,0.165-0.173,0.242-0.264l-0.383-0.322l0.465,0.226
		c0.058-0.065,0.114-0.132,0.159-0.197c0.058-0.081,0.106-0.168,0.155-0.255l-0.438-0.243l0.514,0.106
		c0.046-0.078,0.09-0.157,0.127-0.241c0.036-0.082,0.064-0.167,0.092-0.253l-0.476-0.152l0.525,0.001
		c0.032-0.094,0.063-0.188,0.083-0.278c0.02-0.085,0.031-0.173,0.042-0.262l-0.497-0.059l0.514-0.072
		c0.015-0.114,0.028-0.228,0.03-0.324l0.008-0.073v-41.604C504.271,130.673,502.6,129.002,500.546,129.002z M503.771,174.299
		c0,0.026-0.007,0.049-0.008,0.075c-0.003,0.118-0.02,0.234-0.035,0.351c-0.013,0.096-0.02,0.192-0.041,0.284
		c-0.023,0.104-0.061,0.203-0.094,0.305c-0.032,0.098-0.06,0.197-0.101,0.29c-0.041,0.093-0.096,0.179-0.146,0.269
		c-0.053,0.093-0.101,0.188-0.163,0.276c-0.054,0.077-0.12,0.147-0.182,0.221c-0.076,0.09-0.151,0.181-0.236,0.262
		c-0.018,0.018-0.031,0.039-0.05,0.056c-0.06,0.054-0.127,0.093-0.189,0.141c-0.079,0.063-0.156,0.126-0.241,0.181
		c-0.095,0.062-0.195,0.11-0.295,0.16c-0.081,0.041-0.159,0.085-0.244,0.119c-0.119,0.047-0.241,0.08-0.363,0.113
		c-0.074,0.02-0.145,0.046-0.221,0.061c-0.203,0.04-0.408,0.062-0.614,0.062h-0.001h-0.001c-0.451,0-0.879-0.094-1.269-0.261
		c-0.057-0.024-0.108-0.061-0.164-0.089c-0.138-0.069-0.274-0.138-0.4-0.226c-0.065-0.044-0.122-0.102-0.184-0.151
		c-0.109-0.088-0.217-0.177-0.314-0.279c-0.017-0.019-0.038-0.031-0.056-0.049l-34.357-35.738v33.568
		c0,1.782-1.444,3.225-3.225,3.225s-3.225-1.442-3.225-3.225v-41.575c0-0.027,0.007-0.051,0.008-0.078
		c0.003-0.114,0.019-0.226,0.034-0.338c0.013-0.1,0.021-0.2,0.043-0.296c0.022-0.099,0.059-0.194,0.09-0.291
		c0.034-0.102,0.063-0.206,0.106-0.303c0.039-0.089,0.092-0.172,0.14-0.258c0.054-0.097,0.105-0.196,0.169-0.287
		c0.053-0.075,0.116-0.142,0.176-0.213c0.078-0.093,0.155-0.186,0.242-0.269c0.018-0.017,0.03-0.038,0.049-0.054
		c0.049-0.044,0.106-0.075,0.157-0.116c0.098-0.079,0.196-0.156,0.303-0.223c0.074-0.046,0.151-0.084,0.229-0.124
		c0.11-0.057,0.22-0.112,0.337-0.157c0.082-0.031,0.165-0.053,0.248-0.077c0.117-0.034,0.234-0.066,0.357-0.087
		c0.093-0.016,0.185-0.021,0.279-0.028c0.087-0.007,0.17-0.026,0.258-0.026c0.032,0,0.061,0.008,0.093,0.009
		c0.095,0.002,0.189,0.018,0.283,0.028c0.116,0.014,0.233,0.024,0.345,0.05c0.088,0.02,0.171,0.053,0.257,0.08
		c0.112,0.036,0.225,0.068,0.331,0.115c0.088,0.039,0.169,0.091,0.254,0.138c0.097,0.054,0.196,0.104,0.286,0.168
		c0.08,0.056,0.152,0.124,0.227,0.188c0.087,0.073,0.174,0.145,0.252,0.226c0.019,0.02,0.041,0.033,0.059,0.053l34.356,35.737
		v-33.565c0-1.782,1.444-3.225,3.225-3.225c1.781,0,3.225,1.442,3.225,3.225V174.299z"/>
</g>
<g>
	<path class="st0" d="M670.576,157.007c2.054,0,3.725-1.671,3.725-3.725s-1.671-3.725-3.725-3.725h-33.54V136.45h33.543
		c2.054,0,3.725-1.671,3.725-3.726c0-2.054-1.671-3.725-3.725-3.725h-37.268c-2.054,0-3.725,1.671-3.725,3.725v41.115
		c0,2.054,1.671,3.725,3.725,3.725h37.265c2.054,0,3.725-1.671,3.725-3.725s-1.671-3.725-3.725-3.725h-33.54v-13.107H670.576z
		 M670.576,170.615c1.781,0,3.225,1.442,3.225,3.225c0,1.783-1.444,3.225-3.225,3.225h-37.264c-1.781,0-3.225-1.442-3.225-3.225
		v-41.115c0-1.783,1.444-3.225,3.225-3.225h0.001h0.001h37.264c1.781,0,3.225,1.442,3.225,3.225c0,1.782-1.444,3.225-3.225,3.225
		h-34.042v14.108h34.04c1.781,0,3.225,1.442,3.225,3.225c0,1.782-1.444,3.225-3.225,3.225h-34.04v14.108H670.576z"/>
</g>
<g>
	<path class="st0" d="M339.247,260.699v-41.397c0-2.054-1.671-3.725-3.725-3.725s-3.725,1.671-3.725,3.725v32.656l-76.059-79.143
		v-40.088c0-2.054-1.671-3.725-3.725-3.725s-3.725,1.671-3.725,3.725v32.336l-33.552-34.904c-0.081-0.086-0.17-0.162-0.261-0.238
		l-0.321,0.384l0.231-0.461c-0.066-0.057-0.133-0.114-0.209-0.168c-0.088-0.061-0.181-0.112-0.274-0.164l-0.241,0.438l0.123-0.505
		c-0.075-0.042-0.149-0.084-0.228-0.119c-0.103-0.046-0.211-0.081-0.319-0.115l-0.15,0.478l0.021-0.52
		c-0.077-0.026-0.154-0.052-0.231-0.068c-0.111-0.025-0.227-0.04-0.342-0.053l-0.057,0.497l-0.067-0.512
		c-0.086-0.011-0.171-0.021-0.241-0.022l-0.087-0.011h-0.037c-0.077,0-0.151,0.009-0.226,0.02l-0.132,0.013
		c-0.088,0.007-0.175,0.015-0.263,0.029c-0.142,0.023-0.277,0.061-0.462,0.114c-0.081,0.022-0.161,0.046-0.238,0.076
		c-0.135,0.052-0.261,0.113-0.428,0.199c-0.075,0.039-0.15,0.078-0.226,0.124c-0.125,0.078-0.238,0.167-0.383,0.279
		c-0.052,0.035-0.103,0.071-0.204,0.175c-0.094,0.089-0.177,0.187-0.261,0.285l0.383,0.322l-0.454-0.238
		c-0.054,0.062-0.106,0.123-0.151,0.188c-0.059,0.083-0.109,0.172-0.158,0.261l0.438,0.241l-0.514-0.106
		c-0.043,0.076-0.086,0.152-0.123,0.233c-0.038,0.087-0.068,0.177-0.098,0.268l0.477,0.152l-0.529,0.009
		c-0.028,0.086-0.057,0.171-0.077,0.26c-0.02,0.088-0.031,0.179-0.041,0.271l0.496,0.057l-0.511,0.058
		c-0.015,0.115-0.029,0.229-0.031,0.322l-0.009,0.077v41.611c0,2.055,1.671,3.726,3.725,3.726s3.725-1.671,3.725-3.726v-32.323
		l75.446,78.506v39.934c0,2.054,1.671,3.725,3.725,3.725c2.055,0,3.726-1.671,3.726-3.725v-32.183l33.792,35.154
		c0.697,1.009,1.842,1.61,3.063,1.61l0.062-0.002c0.927,0,1.816-0.344,2.503-0.968C339.037,263.165,339.468,261.888,339.247,260.699
		z M337.751,263.658c-0.617,0.561-1.393,0.838-2.167,0.838c-0.008,0-0.016-0.002-0.024-0.002c-0.013,0-0.024,0.003-0.037,0.003
		c-1.1,0-2.069-0.552-2.651-1.394l-34.704-36.111v33.424c0,1.782-1.444,3.225-3.225,3.225c-1.781,0-3.225-1.442-3.225-3.225v-40.135
		l-76.447-79.547v33.566c0,1.782-1.444,3.225-3.225,3.225s-3.225-1.442-3.225-3.225v-41.575c0-0.026,0.007-0.051,0.008-0.077
		c0.003-0.114,0.019-0.227,0.034-0.34c0.013-0.099,0.021-0.199,0.042-0.294c0.022-0.1,0.059-0.195,0.091-0.293
		c0.033-0.102,0.062-0.205,0.105-0.301c0.04-0.089,0.093-0.173,0.141-0.259c0.054-0.097,0.104-0.195,0.168-0.285
		c0.053-0.075,0.117-0.143,0.177-0.214c0.078-0.093,0.154-0.186,0.242-0.269c0.018-0.017,0.03-0.038,0.049-0.054
		c0.049-0.044,0.106-0.075,0.157-0.116c0.098-0.079,0.196-0.156,0.303-0.223c0.074-0.046,0.151-0.084,0.229-0.124
		c0.11-0.057,0.22-0.112,0.337-0.157c0.082-0.031,0.164-0.053,0.248-0.077c0.117-0.034,0.234-0.066,0.357-0.087
		c0.093-0.016,0.185-0.021,0.279-0.028c0.087-0.007,0.17-0.026,0.258-0.026c0.032,0,0.061,0.008,0.093,0.009
		c0.095,0.002,0.189,0.018,0.283,0.028c0.116,0.014,0.233,0.024,0.345,0.05c0.088,0.02,0.172,0.053,0.258,0.08
		c0.112,0.036,0.224,0.067,0.33,0.115c0.088,0.039,0.17,0.091,0.254,0.138c0.097,0.054,0.195,0.104,0.285,0.167
		c0.08,0.056,0.152,0.124,0.228,0.188c0.086,0.073,0.173,0.144,0.251,0.226c0.019,0.02,0.041,0.033,0.059,0.053l34.356,35.75
		v-33.578c0-1.782,1.444-3.225,3.225-3.225c1.781,0,3.225,1.442,3.225,3.225v40.289l77.058,80.184v-33.898
		c0-1.782,1.444-3.225,3.225-3.225s3.225,1.442,3.225,3.225v41.397C338.937,261.757,338.604,262.883,337.751,263.658z"/>
</g>
<g>
	<path class="st0" d="M335.522,128.999c-2.054,0-3.725,1.671-3.725,3.725v16.834h-33.13v-16.834c0-2.054-1.671-3.725-3.726-3.725
		c-2.054,0-3.725,1.671-3.725,3.725v41.115c0,2.054,1.671,3.725,3.725,3.725c2.055,0,3.726-1.671,3.726-3.725v-16.832h33.13v16.832
		c0,2.054,1.671,3.725,3.725,3.725s3.725-1.671,3.725-3.725v-41.115C339.247,130.67,337.576,128.999,335.522,128.999z
		 M338.747,153.282v20.557c0,1.783-1.444,3.225-3.225,3.225s-3.225-1.442-3.225-3.225v-17.333h-34.13v17.333
		c0,1.783-1.444,3.225-3.225,3.225c-1.781,0-3.225-1.442-3.225-3.225v-20.557v-20.558c0-1.783,1.444-3.225,3.225-3.225
		c1.781,0,3.225,1.442,3.225,3.225v17.333h34.13v-17.333c0-1.783,1.444-3.225,3.225-3.225s3.225,1.442,3.225,3.225V153.282z"/>
</g>
<g>
	<path class="st2" d="M379.853,263.639c-1.781,0-3.225-1.442-3.225-3.225v-20.558c0-1.782,1.444-3.225,3.225-3.225
		s3.225,1.442,3.225,3.225v20.558C383.077,262.197,381.633,263.639,379.853,263.639z"/>
</g>
<g>
	<g>
		<path class="st2" d="M379.853,243.084c-1.781,0-3.225-1.442-3.225-3.225v-20.558c0-1.782,1.444-3.225,3.225-3.225
			s3.225,1.442,3.225,3.225v20.558C383.077,241.642,381.633,243.084,379.853,243.084z"/>
	</g>
</g>
<g>
	<g>
		<path class="st3" d="M129.755,177.065c-1.781,0-3.225-1.442-3.225-3.225v-41.115c0-1.782,1.444-3.225,3.225-3.225
			s3.225,1.442,3.225,3.225v41.115C132.98,175.622,131.536,177.065,129.755,177.065z"/>
	</g>
</g>
<g>
	<g>
		<path class="st4" d="M335.523,156.507h-40.58c-1.781,0-3.225-1.442-3.225-3.225s1.444-3.225,3.225-3.225h40.58
			c1.781,0,3.225,1.442,3.225,3.225S337.303,156.507,335.523,156.507z"/>
	</g>
</g>
<g>
	<g>
		<path class="st4" d="M335.523,177.065c-1.781,0-3.225-1.442-3.225-3.225v-20.558c0-1.782,1.444-3.225,3.225-3.225
			c1.781,0,3.225,1.442,3.225,3.225v20.558C338.747,175.622,337.303,177.065,335.523,177.065z"/>
	</g>
</g>
<g>
	<g>
		<path class="st4" d="M294.943,156.507c-1.781,0-3.225-1.442-3.225-3.225v-20.558c0-1.782,1.444-3.225,3.225-3.225
			c1.781,0,3.225,1.442,3.225,3.225v20.558C298.168,155.065,296.724,156.507,294.943,156.507z"/>
	</g>
</g>
<g>
	<g>
		<path class="st5" d="M335.584,264.496c-0.879,0-1.752-0.356-2.389-1.055L209.66,134.894c-1.197-1.319-1.099-3.36,0.219-4.557
			c1.321-1.194,3.36-1.096,4.555,0.217L337.97,259.101c1.197,1.319,1.099,3.36-0.219,4.557
			C337.134,264.219,336.357,264.496,335.584,264.496z"/>
	</g>
</g>
<g>
	<g>
		<path class="st5" d="M500.548,177.524c-0.879,0-1.753-0.356-2.389-1.055l-39.969-41.575c-1.197-1.319-1.099-3.36,0.219-4.557
			c1.321-1.194,3.36-1.096,4.555,0.217l39.969,41.575c1.197,1.319,1.099,3.36-0.219,4.557
			C502.098,177.247,501.321,177.524,500.548,177.524z"/>
	</g>
</g>
<g>
	<g>
		<path class="st3" d="M633.312,177.065c-1.781,0-3.225-1.442-3.225-3.225v-41.115c0-1.782,1.444-3.225,3.225-3.225
			s3.225,1.442,3.225,3.225v41.115C636.537,175.622,635.093,177.065,633.312,177.065z"/>
	</g>
</g>
<g>
	<g>
		<path class="st4" d="M167.022,135.949h-37.264c-1.781,0-3.225-1.442-3.225-3.225s1.444-3.225,3.225-3.225h37.264
			c1.781,0,3.225,1.442,3.225,3.225S168.803,135.949,167.022,135.949z"/>
	</g>
</g>
<g>
	<g>
		<path class="st5" d="M167.019,156.507h-37.264c-1.781,0-3.225-1.442-3.225-3.225s1.444-3.225,3.225-3.225h37.264
			c1.781,0,3.225,1.442,3.225,3.225S168.8,156.507,167.019,156.507z"/>
	</g>
</g>
<g>
	<g>
		<path class="st2" d="M167.019,177.065h-37.264c-1.781,0-3.225-1.442-3.225-3.225s1.444-3.225,3.225-3.225h37.264
			c1.781,0,3.225,1.442,3.225,3.225S168.8,177.065,167.019,177.065z"/>
	</g>
</g>
<g>
	<g>
		<path class="st4" d="M417.209,222.524h-37.357c-1.781,0-3.225-1.442-3.225-3.225s1.444-3.225,3.225-3.225h37.357
			c1.781,0,3.225,1.442,3.225,3.225S418.99,222.524,417.209,222.524z"/>
	</g>
</g>
<g>
	<g>
		<path class="st5" d="M417.209,243.081h-37.357c-1.781,0-3.225-1.442-3.225-3.225s1.444-3.225,3.225-3.225h37.357
			c1.781,0,3.225,1.442,3.225,3.225S418.99,243.081,417.209,243.081z"/>
	</g>
</g>
<g>
	<g>
		<path class="st3" d="M584.124,140.758c-0.825,0-1.65-0.315-2.28-0.945c-7.429-7.426-19.512-7.426-26.941,0
			c-1.26,1.26-3.3,1.26-4.56,0c-1.26-1.26-1.26-3.3,0-4.56c9.942-9.939,26.119-9.939,36.061,0c1.26,1.26,1.26,3.3,0,4.56
			C585.774,140.443,584.949,140.758,584.124,140.758z"/>
	</g>
</g>
<g>
	<g>
		<path class="st5" d="M552.623,172.256c-0.825,0-1.65-0.315-2.28-0.945c-9.942-9.942-9.942-26.116,0-36.058
			c1.26-1.26,3.3-1.26,4.56,0c1.26,1.26,1.26,3.3,0,4.56c-7.426,7.426-7.426,19.512,0,26.938c1.26,1.26,1.26,3.3,0,4.56
			C554.273,171.941,553.448,172.256,552.623,172.256z"/>
	</g>
</g>
<g>
	<g>
		<path class="st4" d="M568.374,178.781c-6.81,0-13.214-2.652-18.03-7.47c-1.26-1.26-1.26-3.3,0-4.56c1.26-1.26,3.3-1.26,4.56,0
			c3.599,3.599,8.383,5.58,13.47,5.58s9.871-1.981,13.47-5.58c1.26-1.26,3.3-1.26,4.56,0c1.26,1.26,1.26,3.3,0,4.56
			C581.587,176.129,575.184,178.781,568.374,178.781z"/>
	</g>
</g>
<g>
	<g>
		<path class="st3" d="M167.445,228.188c-0.825,0-1.65-0.315-2.28-0.945c-7.43-7.429-19.512-7.423-26.939,0
			c-1.26,1.26-3.3,1.26-4.56,0c-1.26-1.26-1.26-3.3,0-4.56c9.942-9.948,26.117-9.948,36.059,0c1.26,1.26,1.26,3.3,0,4.56
			C169.096,227.873,168.271,228.188,167.445,228.188z"/>
	</g>
</g>
<g>
	<g>
		<path class="st5" d="M135.946,259.688c-0.825,0-1.65-0.315-2.28-0.945c-4.817-4.815-7.47-11.217-7.47-18.029
			c0-6.812,2.653-13.214,7.47-18.032c1.26-1.26,3.3-1.26,4.56,0c1.26,1.26,1.26,3.3,0,4.56c-3.598,3.599-5.58,8.383-5.58,13.472
			c0,5.089,1.982,9.869,5.58,13.469c1.26,1.26,1.26,3.3,0,4.56C137.596,259.373,136.771,259.688,135.946,259.688z"/>
	</g>
</g>
<g>
	<g>
		<path class="st4" d="M151.695,266.201c-6.528,0-13.058-2.485-18.029-7.457c-1.26-1.26-1.26-3.3,0-4.56c1.26-1.26,3.3-1.26,4.56,0
			c7.429,7.429,19.51,7.429,26.939,0c1.26-1.26,3.3-1.26,4.56,0c1.26,1.26,1.26,3.3,0,4.56
			C164.755,263.716,158.225,266.201,151.695,266.201z"/>
	</g>
</g>
<g>
	<g>
		<path class="st2" d="M252.998,243.94c-1.781,0-3.225-1.442-3.225-3.225c0-10.502-8.545-19.049-19.049-19.049
			c-1.781,0-3.225-1.442-3.225-3.225s1.444-3.225,3.225-3.225c14.059,0,25.499,11.438,25.499,25.499
			C256.223,242.497,254.779,243.94,252.998,243.94z"/>
	</g>
</g>
<g>
	<g>
		<path class="st4" d="M208.45,243.94c-1.781,0-3.225-1.442-3.225-3.225c0-14.061,11.439-25.499,25.499-25.499
			c1.781,0,3.225,1.442,3.225,3.225s-1.444,3.225-3.225,3.225c-10.504,0-19.049,8.547-19.049,19.049
			C211.675,242.497,210.231,243.94,208.45,243.94z"/>
	</g>
</g>
<g>
	<g>
		<path class="st3" d="M230.724,266.213c-14.059,0-25.499-11.438-25.499-25.499c0-1.782,1.444-3.225,3.225-3.225
			s3.225,1.442,3.225,3.225c0,10.502,8.545,19.049,19.049,19.049c1.781,0,3.225,1.442,3.225,3.225S232.505,266.213,230.724,266.213z
			"/>
	</g>
</g>
<g>
	<g>
		<path class="st5" d="M230.724,266.213c-1.781,0-3.225-1.442-3.225-3.225s1.444-3.225,3.225-3.225
			c10.504,0,19.049-8.547,19.049-19.049c0-1.782,1.444-3.225,3.225-3.225s3.225,1.442,3.225,3.225
			C256.223,254.776,244.783,266.213,230.724,266.213z"/>
	</g>
</g>
<g>
	<g>
		<path class="st2" d="M500.546,177.524c-1.781,0-3.225-1.442-3.225-3.225v-41.572c0-1.782,1.444-3.225,3.225-3.225
			c1.781,0,3.225,1.442,3.225,3.225V174.3C503.771,176.082,502.327,177.524,500.546,177.524z"/>
	</g>
</g>
<g>
	<g>
		<path class="st4" d="M460.578,177.524c-1.781,0-3.225-1.442-3.225-3.225v-41.575c0-1.782,1.444-3.225,3.225-3.225
			c1.781,0,3.225,1.442,3.225,3.225V174.3C463.803,176.082,462.359,177.524,460.578,177.524z"/>
	</g>
</g>
<g>
	<g>
		<path class="st4" d="M670.578,135.949h-37.264c-1.781,0-3.225-1.442-3.225-3.225s1.444-3.225,3.225-3.225h37.264
			c1.781,0,3.225,1.442,3.225,3.225S672.359,135.949,670.578,135.949z"/>
	</g>
</g>
<g>
	<g>
		<path class="st5" d="M670.576,156.507h-37.264c-1.781,0-3.225-1.442-3.225-3.225s1.444-3.225,3.225-3.225h37.264
			c1.781,0,3.225,1.442,3.225,3.225S672.357,156.507,670.576,156.507z"/>
	</g>
</g>
<g>
	<g>
		<path class="st2" d="M670.576,177.065h-37.264c-1.781,0-3.225-1.442-3.225-3.225s1.444-3.225,3.225-3.225h37.264
			c1.781,0,3.225,1.442,3.225,3.225S672.357,177.065,670.576,177.065z"/>
	</g>
</g>
<g>
	<g>
		<path class="st2" d="M335.523,264.497c-1.781,0-3.225-1.442-3.225-3.225v-41.971c0-1.782,1.444-3.225,3.225-3.225
			c1.781,0,3.225,1.442,3.225,3.225v41.971C338.747,263.055,337.303,264.497,335.523,264.497z"/>
	</g>
</g>
<g>
	<g>
		<path class="st2" d="M252.015,177.524c-1.781,0-3.225-1.442-3.225-3.225v-41.572c0-1.782,1.444-3.225,3.225-3.225
			s3.225,1.442,3.225,3.225V174.3C255.24,176.082,253.796,177.524,252.015,177.524z"/>
	</g>
</g>
<g>
	<g>
		<path class="st4" d="M212.047,177.524c-1.781,0-3.225-1.442-3.225-3.225v-41.575c0-1.782,1.444-3.225,3.225-3.225
			c1.781,0,3.225,1.442,3.225,3.225V174.3C215.271,176.082,213.827,177.524,212.047,177.524z"/>
	</g>
</g>
<g>
	<g>
		<path class="st4" d="M294.943,263.641c-1.781,0-3.225-1.442-3.225-3.225v-41.114c0-1.782,1.444-3.225,3.225-3.225
			c1.781,0,3.225,1.442,3.225,3.225v41.114C298.168,262.198,296.724,263.641,294.943,263.641z"/>
	</g>
</g>
<g>
	<g>
		<path class="st2" d="M335.523,156.507c-1.781,0-3.225-1.442-3.225-3.225v-20.558c0-1.782,1.444-3.225,3.225-3.225
			c1.781,0,3.225,1.442,3.225,3.225v20.558C338.747,155.065,337.303,156.507,335.523,156.507z"/>
	</g>
</g>
<g>
	<g>
		<path class="st3" d="M294.943,177.065c-1.781,0-3.225-1.442-3.225-3.225v-20.558c0-1.782,1.444-3.225,3.225-3.225
			c1.781,0,3.225,1.442,3.225,3.225v20.558C298.168,175.622,296.724,177.065,294.943,177.065z"/>
	</g>
</g>
<g>
	<g>
		<path class="st4" d="M411.92,166.787h-27.849c-1.781,0-3.225-1.442-3.225-3.225s1.444-3.225,3.225-3.225h27.849
			c1.781,0,3.225,1.442,3.225,3.225S413.701,166.787,411.92,166.787z"/>
	</g>
</g>
<g>
	<g>
		<path class="st3" d="M379.232,177.066c-0.447,0-0.899-0.091-1.332-0.29c-1.622-0.737-2.338-2.648-1.603-4.27l18.678-41.115
			c0.737-1.622,2.65-2.343,4.27-1.6c1.622,0.737,2.338,2.648,1.603,4.27l-18.677,41.115
			C381.63,176.364,380.457,177.066,379.232,177.066z"/>
	</g>
</g>
<g>
	<g>
		<path class="st2" d="M416.591,177.066c0.447,0,0.899-0.091,1.332-0.29c1.622-0.737,2.338-2.648,1.603-4.27l-18.678-41.115
			c-0.737-1.622-2.65-2.343-4.27-1.6c-1.622,0.737-2.338,2.648-1.603,4.27l18.678,41.115
			C414.193,176.364,415.366,177.066,416.591,177.066z"/>
	</g>
</g>
</svg>
